<?xml version="1.0" standalone="no"?>
<!DOCTYPE svg PUBLIC "-//W3C//DTD SVG 1.1//EN" "http://www.w3.org/Graphics/SVG/1.1/DTD/svg11.dtd">
<svg version="1.1" xmlns="http://www.w3.org/2000/svg" xmlns:xlink="http://www.w3.org/1999/xlink"><metadata>This SVG WebFont was generated by YouWorkForThem.
</metadata><defs><font horiz-adv-x="603" id="ywftsvg"><font-face ascent="800" bbox="-51 -310 1170 971" cap-height="700" descent="-200" font-family="" font-stretch="normal" font-weight="500" panose-1="0 0 0 0 0 0 0 0 0 0" underline-position="0" underline-thickness="0" unicode-range="U+0020-E000" units-per-em="1000" x-height="507"/><missing-glyph d="M410 800v-1000h-317v1000h317zM167 -131h166v33h-102l70 47h32v33h-166v-33h70l-70 -47v-33zM167 5h166v113h-166v-113zM167 178h166v113h-100v-56h34v23h33v-47h-100v80h-33v-113zM167 313h166v100h-33v-66h-133v-34zM167 370h100v70h66v33h-166v-33h66v-37h-66v-33z M167 500h166v34h-66v70h-100v-104zM167 630h166v33h-66v37h66v33h-165v-33h65v-37h-66v-33zM200 38v47h100v-47h-100zM200 534v36h33v-36h-33z" horiz-adv-x="500"/><glyph d="M114 0v382h-84v124h84v52q0 94 49.5 144t132.5 50q65 0 120 -42l-54 -107q-28 24 -57 24q-28 0 -42.5 -19.5t-14.5 -49.5v-52h211v52q0 94 49.5 144t132.5 50q45 0 84.5 -20t62.5 -49l-81 -80q-29 24 -57 24t-42.5 -19.5t-14.5 -49.5v-52h144v-124h-144v-382h-134v382 h-211v-382h-134z" glyph-name="f_f.liga" horiz-adv-x="793" unicode="ff"/><glyph d="M115 0v382h-85v124h85v52q0 94 49.5 144t132.5 50q65 0 120 -42l-55 -107q-24 24 -56 24q-28 0 -43 -19.5t-15 -49.5v-52h212v52q0 94 49.5 144t132.5 50q65 0 120 -42l-55 -107q-24 24 -56 24q-28 0 -43 -19.5t-15 -49.5v-52h345v-506h-133v382h-212v-382h-133v382h-212 v-382h-133zM799 654q0 30 21 51.5t51 21.5q31 0 52 -21.5t21 -51.5t-21 -51t-52 -21q-30 0 -51 21t-21 51z" glyph-name="f_f_i.liga" horiz-adv-x="994" unicode="ffi"/><glyph d="M115 0v382h-85v124h85v52q0 94 49.5 144t132.5 50q64 0 119 -42l-54 -107q-24 24 -56 24q-28 0 -43 -19.5t-15 -49.5v-52h345v-506h-133v382h-212v-382h-133zM454 654q0 30 21 51.5t51 21.5t51.5 -21.5t21.5 -51.5t-21.5 -51t-51.5 -21t-51 21t-21 51z" glyph-name="f_i.liga" horiz-adv-x="649" unicode="fi"/><glyph d="M115 0v382h-85v124h85v15q0 109 66 170t168 61q106 0 175 -64.5t69 -164.5v-523h-133v514q0 47 -27.5 80t-83.5 33q-46 0 -73.5 -29.5t-27.5 -76.5v-15h144v-124h-144v-382h-133z" glyph-name="f_l.liga" horiz-adv-x="643" unicode="fl"/><glyph d="M636 -9q-84 0 -130 45.5t-46 139.5v206h-211v-382h-134v382h-85v124h85v52q0 94 49.5 144t132.5 50q45 0 84.5 -20t62.5 -49l-81 -80q-29 24 -57 24t-42.5 -19.5t-14.5 -49.5v-52h211v113h134v-113h137v-124h-137v-206q0 -29 14.5 -44.5t40.5 -15.5q28 0 47 25l80 -82 q-58 -68 -140 -68z" glyph-name="f_t.liga" horiz-adv-x="796" unicode="ft"/><glyph d="M410 800v-1000h-317v1000h317zM167 -131h166v33h-102l70 47h32v33h-166v-33h70l-70 -47v-33zM167 5h166v113h-166v-113zM167 178h166v113h-100v-56h34v23h33v-47h-100v80h-33v-113zM167 313h166v100h-33v-66h-133v-34zM167 370h100v70h66v33h-166v-33h66v-37h-66v-33z M167 500h166v34h-66v70h-100v-104zM167 630h166v33h-66v37h66v33h-165v-33h65v-37h-66v-33zM200 38v47h100v-47h-100zM200 534v36h33v-36h-33z" glyph-name=".notdef" horiz-adv-x="500"/><glyph glyph-name="glyph1" horiz-adv-x="0"/><glyph glyph-name="glyph2" horiz-adv-x="333"/><glyph glyph-name="space" horiz-adv-x="235" unicode=" "/><glyph glyph-name="space" horiz-adv-x="235" unicode=" "/><glyph d="M95 218l-8 482h142l-9 -482h-125zM80 66q0 32 23 54.5t55 22.5t54.5 -22.5t22.5 -54.5t-22.5 -54.5t-54.5 -22.5t-55 22.5t-23 54.5z" glyph-name="exclam" horiz-adv-x="315" unicode="!"/><glyph d="M232 462v238h107v-238h-107zM50 462v238h107v-238h-107z" glyph-name="quotedbl" horiz-adv-x="389" unicode="&quot;"/><glyph d="M110 47l37 150h-97v98h121l27 109h-112v98h136l38 150h99l-38 -150h122l37 150h99l-37 -150h96v-98h-121l-27 -109h112v-98h-136l-37 -150h-99l37 150h-121l-38 -150h-98zM270 295h122l26 109h-121z" glyph-name="numbersign" horiz-adv-x="688" unicode="#"/><glyph d="M226 -9q-53 7 -93.5 31t-61.5 56t-31 61t-10 54l142 13q1 -26 25 -52.5t72 -26.5q45 0 68 21t23 53t-30.5 50.5t-112.5 47.5q-84 30 -123 79t-39 128q0 77 48 133.5t123 68.5v114h89v-117q66 -15 108.5 -64t49.5 -109l-139 -18q-3 24 -20 42.5t-51 18.5 q-32 0 -49.5 -19.5t-17.5 -45.5q0 -29 19.5 -49t77.5 -39q95 -32 131 -56q87 -56 87 -162q0 -83 -54 -141t-142 -72v-114h-89v114z" glyph-name="dollar" horiz-adv-x="541" unicode="$"/><glyph d="M139 0l480 700h90l-480 -700h-90zM60 536q0 68 48 115.5t115 47.5q68 0 116 -47.5t48 -115.5t-48 -115.5t-116 -47.5q-67 0 -115 47.5t-48 115.5zM149 536q0 -31 21.5 -52.5t52.5 -21.5t53 21.5t22 52.5t-22 52.5t-53 21.5t-52.5 -21.5t-21.5 -52.5zM461 163 q0 68 48 115.5t116 47.5q67 0 115 -48t48 -115t-48 -115t-115 -48q-68 0 -116 47.5t-48 115.5zM550 163q0 -31 22 -52.5t53 -21.5t52.5 21.5t21.5 52.5t-21.5 52.5t-52.5 21.5t-53 -21.5t-22 -52.5z" glyph-name="percent" horiz-adv-x="848" unicode="%"/><glyph d="M289 -11q-104 0 -171.5 56.5t-67.5 147.5q0 111 124 205q-56 83 -56 145q0 73 50 120.5t125 47.5q73 0 122.5 -46t49.5 -115q0 -88 -101 -169l104 -103q17 31 44 93l117 -50q-31 -78 -66 -138q48 -47 89 -88l-94 -86q-30 30 -70 69q-84 -89 -199 -89zM190 202 q0 -35 26.5 -58t72.5 -23q59 0 106 49q-88 89 -138 135q-67 -46 -67 -103zM243 537q0 -31 35 -80q62 44 62 85q0 20 -14 33t-33 13q-23 0 -36.5 -15.5t-13.5 -35.5z" glyph-name="ampersand" horiz-adv-x="682" unicode="&amp;"/><glyph d="M50 462v238h106v-238h-106z" glyph-name="quotesingle" horiz-adv-x="206" unicode="'"/><glyph d="M273 -202q-193 237 -193 552q0 316 193 553l97 -79q-166 -201 -166 -474q0 -272 166 -473z" glyph-name="parenleft" horiz-adv-x="410" unicode="("/><glyph d="M40 -124q165 202 165 474q0 271 -165 473l96 79q194 -238 194 -552q0 -315 -194 -553z" glyph-name="parenright" horiz-adv-x="410" unicode=")"/><glyph d="M150 371l-87 63l72 79l-105 22l33 102l98 -44l-11 107h106l-11 -107l98 44l33 -102l-105 -22l72 -79l-87 -63l-53 93z" glyph-name="asterisk" horiz-adv-x="416" unicode="*"/><glyph d="M190 101v130h-130v134h130v130h134v-130h130v-134h-130v-130h-134z" glyph-name="plus" horiz-adv-x="514" unicode="+"/><glyph d="M-10 -140l75 210h135l-111 -210h-99z" glyph-name="comma" horiz-adv-x="240" unicode=","/><glyph d="M80 231v134h393v-134h-393z" glyph-name="hyphen" horiz-adv-x="553" unicode="-"/><glyph d="M138 -11q-32 0 -55 22.5t-23 54.5t23 54.5t55 22.5t54.5 -22.5t22.5 -54.5t-22.5 -54.5t-54.5 -22.5z" glyph-name="period" horiz-adv-x="275" unicode="."/><glyph d="M40 -151l334 1003h129l-333 -1003h-130z" glyph-name="slash" horiz-adv-x="533" unicode="/"/><glyph d="M320 -11q-72 0 -127.5 31t-88 83.5t-48.5 115t-16 131.5t16 131.5t48.5 115.5t88 84t127.5 31q58 0 106 -21t79.5 -55.5t53.5 -81.5t31.5 -98t9.5 -106q0 -69 -16 -131.5t-48 -115t-88 -83.5t-128 -31zM183 350q0 -27 2.5 -52t11 -57t22.5 -55t40 -39t61 -16t61 16t40 39 t22.5 55t11 57t2.5 52q0 35 -4.5 67t-17.5 69.5t-42.5 60t-72.5 22.5t-72.5 -22.5t-42.5 -60t-17.5 -69.5t-4.5 -67z" glyph-name="zero" horiz-adv-x="640" unicode="0"/><glyph d="M199 0v558l-106 -50l-53 106l177 86h124v-700h-142z" glyph-name="one" horiz-adv-x="401" unicode="1"/><glyph d="M52 134q9 7 29 25q146 135 182 174q83 91 83 151q0 35 -22 60t-60 25q-60 0 -87 -74l-137 37q27 86 84 133t141 47q102 0 165 -62t63 -161q0 -92 -50 -165t-176 -190h244v-134h-459v134z" glyph-name="two" horiz-adv-x="551" unicode="2"/><glyph d="M276 -11q-87 0 -151.5 46.5t-84.5 121.5l139 42q8 -30 34.5 -49t62.5 -19q39 0 65 25.5t26 65.5q0 43 -29 67.5t-82 24.5h-47v117h47q93 0 93 73q0 31 -21.5 52.5t-51.5 21.5q-28 0 -48 -17.5t-25 -43.5l-134 17q8 78 67 128t140 50q86 0 146.5 -57t60.5 -142 q0 -82 -72 -134q98 -59 98 -165q0 -96 -67.5 -160.5t-165.5 -64.5z" glyph-name="three" horiz-adv-x="549" unicode="3"/><glyph d="M338 0v134h-298v134l278 432h163v-432h98v-134h-98v-134h-143zM194 268h144v224z" glyph-name="four" horiz-adv-x="619" unicode="4"/><glyph d="M272 -11q-82 0 -145.5 48t-86.5 124l136 41q10 -32 36 -51.5t60 -19.5q41 0 68.5 27.5t27.5 68.5t-29 67t-71 26q-45 0 -72 -32l-122 29l44 383h347v-133h-230l-14 -125q31 11 65 11q96 0 160 -63.5t64 -162.5q0 -101 -69 -169.5t-169 -68.5z" glyph-name="five" horiz-adv-x="550" unicode="5"/><glyph d="M283 -11q-101 0 -172 71.5t-71 171.5q0 72 40 131l227 337h152l-156 -234q95 -7 159.5 -73t64.5 -161q0 -101 -71.5 -172t-172.5 -71zM182 232q0 -42 29.5 -71.5t71.5 -29.5t72 29.5t30 71.5t-30 72t-72 30t-71.5 -30t-29.5 -72z" glyph-name="six" horiz-adv-x="567" unicode="6"/><glyph d="M71 0l260 567h-291v133h435v-133l-260 -567h-144z" glyph-name="seven" horiz-adv-x="515" unicode="7"/><glyph d="M274 -11q-98 0 -166 64.5t-68 160.5q0 107 88 166q-62 51 -62 133q0 85 60.5 142t147.5 57q86 0 146.5 -57t60.5 -142q0 -83 -61 -133q88 -60 88 -166q0 -96 -68 -160.5t-166 -64.5zM182 222q0 -38 27 -64.5t65 -26.5t64.5 26.5t26.5 64.5t-26.5 65t-64.5 27t-65 -27 t-27 -65zM200 504q0 -30 21.5 -51.5t52.5 -21.5q30 0 52 21.5t22 51.5q0 31 -22 52.5t-52 21.5q-31 0 -52.5 -21.5t-21.5 -52.5z" glyph-name="eight" horiz-adv-x="548" unicode="8"/><glyph d="M264 234q-95 7 -159.5 73t-64.5 161q0 100 72 172t172 72q101 0 172.5 -71.5t71.5 -172.5q0 -72 -40 -131l-227 -337h-152zM183 468q0 -42 29.5 -71.5t71.5 -29.5t72 29.5t30 71.5t-30 71.5t-72 29.5t-71.5 -29.5t-29.5 -71.5z" glyph-name="nine" horiz-adv-x="568" unicode="9"/><glyph d="M137 364q-32 0 -54.5 22.5t-22.5 54.5t22.5 54.5t54.5 22.5t55 -22.5t23 -54.5t-23 -54.5t-55 -22.5zM60 66q0 32 22.5 54.5t54.5 22.5t55 -22.5t23 -54.5t-23 -54.5t-55 -22.5t-54.5 22.5t-22.5 54.5z" glyph-name="colon" horiz-adv-x="275" unicode=":"/><glyph d="M-10 -140l76 210h135l-111 -210h-100zM59 441q0 32 22.5 54.5t54.5 22.5t55 -22.5t23 -54.5t-23 -54.5t-55 -22.5t-54.5 22.5t-22.5 54.5z" glyph-name="semicolon" horiz-adv-x="264" unicode=";"/><glyph d="M469 50l-399 185v126l399 186v-144l-238 -105l238 -105v-143z" glyph-name="less" horiz-adv-x="539" unicode="&lt;"/><glyph d="M70 125v134h429v-134h-429zM70 338v133h429v-133h-429z" glyph-name="equal" horiz-adv-x="569" unicode="="/><glyph d="M70 50v143l237 105l-237 105v144l398 -186v-126z" glyph-name="greater" horiz-adv-x="538" unicode=">"/><glyph d="M167 218q1 39 16.5 72t27 46t41.5 44q34 35 49 60.5t15 58.5q0 28 -19.5 49t-53.5 21q-57 0 -71 -69l-142 10q13 90 69 146t144 56q92 0 153.5 -61.5t61.5 -147.5q0 -39 -8 -70t-26.5 -57t-31.5 -40t-39 -38q-24 -22 -33 -31.5t-18.5 -23.5t-9.5 -25h-125zM155 66 q0 32 22.5 54.5t54.5 22.5t55 -22.5t23 -54.5t-23 -54.5t-55 -22.5t-54.5 22.5t-22.5 54.5z" glyph-name="question" horiz-adv-x="498" unicode="?"/><glyph d="M521 -209q-127 0 -232.5 51t-172 156t-66.5 246q0 198 139.5 330.5t348.5 132.5q218 0 356 -117t138 -311q0 -113 -54 -185.5t-142 -72.5q-99 0 -149 83q-65 -83 -171 -83q-94 0 -158 68t-64 166q0 97 64 165t158 68q79 0 139 -50v40h118v-259q0 -82 63 -82q40 0 60 42 t20 100q0 82 -33 144t-88.5 97.5t-120 53t-136.5 17.5q-162 0 -267 -98t-105 -249q0 -152 95.5 -244.5t259.5 -92.5q107 0 191 55l63 -97q-110 -74 -254 -74zM416 255q0 -49 34 -82.5t82 -33.5t82 33.5t34 82.5q0 48 -34 81.5t-82 33.5t-82 -33.5t-34 -81.5z" glyph-name="at" horiz-adv-x="1082" unicode="@"/><glyph d="M10 0l266 700h168l266 -700h-156l-59 166h-270l-58 -166h-157zM270 290h181l-91 255z" glyph-name="A" horiz-adv-x="720" unicode="A"/><glyph d="M60 0v700h208q108 0 171.5 -53t63.5 -141q0 -85 -60 -134q90 -53 90 -163q0 -94 -67 -151.5t-176 -57.5h-230zM203 134h87q48 0 73 23t25 60t-25 60.5t-73 23.5h-87v-167zM203 427h65q92 0 92 70t-92 70h-65v-140z" glyph-name="B" horiz-adv-x="573" unicode="B"/><glyph d="M389 -11q-150 0 -257 105.5t-107 255.5t107 256t257 106q88 0 165 -39t128 -107l-113 -87q-68 91 -180 91q-92 0 -157 -64.5t-65 -155.5t65 -155t157 -64q58 0 107.5 27.5t80.5 74.5l113 -87q-50 -73 -129.5 -115t-171.5 -42z" glyph-name="C" horiz-adv-x="705" unicode="C"/><glyph d="M60 0v700h203q170 0 281.5 -94.5t111.5 -255.5t-112 -255.5t-281 -94.5h-203zM203 134h60q108 0 178.5 57t70.5 159t-70.5 159.5t-178.5 57.5h-60v-433z" glyph-name="D" horiz-adv-x="686" unicode="D"/><glyph d="M60 0v700h402v-133h-260v-141h242v-133h-242v-159h269v-134h-411z" glyph-name="E" horiz-adv-x="521" unicode="E"/><glyph d="M60 0v700h419v-133h-277v-150h251v-133h-251v-284h-142z" glyph-name="F" horiz-adv-x="529" unicode="F"/><glyph d="M389 -10q-150 0 -257 105t-107 255t107 256t257 106q88 0 165 -39t128 -107l-113 -87q-68 91 -180 91q-92 0 -157 -64.5t-65 -155.5t65 -155t157 -64q154 0 192 135h-219v134h374v-36q0 -171 -94.5 -272.5t-252.5 -101.5z" glyph-name="G" horiz-adv-x="761" unicode="G"/><glyph d="M55 0v700h143v-283h318v283h143v-700h-143v284h-318v-284h-143z" glyph-name="H" horiz-adv-x="714" unicode="H"/><glyph d="M55 0v700h142v-700h-142z" glyph-name="I" horiz-adv-x="252" unicode="I"/><glyph d="M221 -11q-85 0 -138 43.5t-63 107.5l138 37q3 -16 17.5 -31t42.5 -15q60 0 60 83v486h143v-486q0 -225 -200 -225z" glyph-name="J" horiz-adv-x="481" unicode="J"/><glyph d="M60 0v700h142v-338l229 338h160l-233 -345l262 -355h-182l-236 324v-324h-142z" glyph-name="K" horiz-adv-x="630" unicode="K"/><glyph d="M60 0v700h143v-566h277v-134h-420z" glyph-name="L" horiz-adv-x="530" unicode="L"/><glyph d="M60 0v700h148l183 -282l183 282h148v-700h-142v480l-157 -229h-63l-157 229v-480h-143z" glyph-name="M" horiz-adv-x="782" unicode="M"/><glyph d="M60 0v700h163l298 -473v473h143v-700h-163l-299 474v-474h-142z" glyph-name="N" horiz-adv-x="724" unicode="N"/><glyph d="M389 -11q-151 0 -257.5 105.5t-106.5 255.5q0 151 106.5 256.5t257.5 105.5q150 0 257 -106t107 -256t-107 -255.5t-257 -105.5zM167 350q0 -91 65 -155t157 -64t157 64t65 155t-65 155.5t-157 64.5t-157 -64.5t-65 -155.5z" glyph-name="O" horiz-adv-x="778" unicode="O"/><glyph d="M60 0v700h223q118 0 186.5 -64.5t68.5 -165.5t-68.5 -165.5t-186.5 -64.5h-80v-240h-143zM203 373h80q57 0 83.5 27t26.5 70t-26.5 70t-83.5 27h-80v-194z" glyph-name="P" horiz-adv-x="573" unicode="P"/><glyph d="M581 43q-89 -54 -192 -54q-150 0 -257 105.5t-107 255.5t107 256t257 106t257 -106t107 -256q0 -128 -79 -224l83 -87l-90 -86zM167 350q0 -91 65 -155t157 -64q46 0 89 19l-110 115l90 86l116 -121q37 55 37 120q0 91 -65 155.5t-157 64.5t-157 -64.5t-65 -155.5z" glyph-name="Q" horiz-adv-x="782" unicode="Q"/><glyph d="M60 0v700h214q117 0 184.5 -64t67.5 -161q0 -59 -27 -108.5t-76 -80.5l172 -286h-168l-139 249h-86v-249h-142zM202 382h72q56 0 81.5 27t25.5 66q0 38 -26 65t-81 27h-72v-185z" glyph-name="R" horiz-adv-x="605" unicode="R"/><glyph d="M268 -11q-65 0 -114.5 22.5t-74.5 56.5t-37 66.5t-12 59.5l142 13q1 -26 24.5 -52.5t71.5 -26.5q46 0 69 21t23 53t-30.5 50.5t-112.5 47.5q-84 30 -123 79t-39 128q0 87 59.5 146t146.5 59q88 0 145.5 -53.5t66.5 -125.5l-139 -18q-3 24 -20 42.5t-51 18.5 q-32 0 -49.5 -19.5t-17.5 -45.5q0 -29 19.5 -49t77.5 -39q95 -32 131 -56q87 -56 87 -162q0 -94 -68.5 -155t-174.5 -61z" glyph-name="S" horiz-adv-x="541" unicode="S"/><glyph d="M208 0v567h-163v133h470v-133h-164v-567h-143z" glyph-name="T" horiz-adv-x="560" unicode="T"/><glyph d="M350 -11q-138 0 -214 81.5t-76 221.5v408h142v-408q0 -75 38 -118t110 -43t110 43t38 118v408h142v-408q0 -140 -76 -221.5t-214 -81.5z" glyph-name="U" horiz-adv-x="700" unicode="U"/><glyph d="M277 0l-267 700h157l193 -545l194 545h157l-267 -700h-167z" glyph-name="V" horiz-adv-x="721" unicode="V"/><glyph d="M250 0l-240 700h157l161 -508l154 508h115l155 -508l161 508h157l-240 -700h-150l-140 464l-141 -464h-149z" glyph-name="W" horiz-adv-x="1080" unicode="W"/><glyph d="M15 0l241 371l-214 329h163l137 -218l138 218h163l-215 -329l242 -371h-163l-165 252l-164 -252h-163z" glyph-name="X" horiz-adv-x="685" unicode="X"/><glyph d="M280 0v306l-265 394h163l173 -262l173 262h163l-265 -394v-306h-142z" glyph-name="Y" horiz-adv-x="702" unicode="Y"/><glyph d="M40 0v125l314 442h-305v133h479v-124l-314 -442h341v-134h-515z" glyph-name="Z" horiz-adv-x="595" unicode="Z"/><glyph d="M90 -151v1003h245v-116h-112v-771h112v-116h-245z" glyph-name="bracketleft" horiz-adv-x="395" unicode="["/><glyph d="M363 -152l-333 1003h129l334 -1003h-130z" glyph-name="backslash" horiz-adv-x="533" unicode="\"/><glyph d="M60 -152v116h112v771h-112v116h246v-1003h-246z" glyph-name="bracketright" horiz-adv-x="396" unicode="]"/><glyph d="M30 473l149 227h127l150 -227h-136l-77 118l-78 -118h-135z" glyph-name="asciicircum" horiz-adv-x="486" unicode="^"/><glyph d="M70 -129v133h491v-133h-491z" glyph-name="underscore" horiz-adv-x="631" unicode="_"/><glyph d="M282 -11q-107 0 -179.5 77t-72.5 188q0 110 72.5 187t179.5 77q91 0 158 -56v45h134v-507h-134v45q-67 -56 -158 -56zM168 254q0 -55 38.5 -93.5t93.5 -38.5t93.5 38.5t38.5 93.5q0 54 -38.5 92.5t-93.5 38.5t-93.5 -38.5t-38.5 -92.5z" glyph-name="a" horiz-adv-x="624" unicode="a"/><glyph d="M341 -11q-89 0 -158 56v-45h-133v745h133v-283q69 56 158 56q107 0 179.5 -77t72.5 -187q0 -111 -72.5 -188t-179.5 -77zM191 254q0 -55 38.5 -93.5t93.5 -38.5t93.5 38.5t38.5 93.5q0 54 -38.5 92.5t-93.5 38.5t-93.5 -38.5t-38.5 -92.5z" glyph-name="b" horiz-adv-x="623" unicode="b"/><glyph d="M300 -11q-110 0 -190 77.5t-80 187.5q0 109 80 186.5t190 77.5q75 0 138 -37.5t99 -99.5l-124 -60q-39 64 -113 64q-55 0 -93.5 -38.5t-38.5 -92.5q0 -55 38.5 -93.5t93.5 -38.5q74 0 113 64l124 -60q-36 -62 -99 -99.5t-138 -37.5z" glyph-name="c" horiz-adv-x="562" unicode="c"/><glyph d="M283 -11q-107 0 -180 77t-73 188q0 110 73 187t180 77q90 0 157 -56v283h134v-745h-134v45q-67 -56 -157 -56zM168 254q0 -55 38.5 -93.5t93.5 -38.5t93.5 38.5t38.5 93.5q0 54 -38.5 92.5t-93.5 38.5t-93.5 -38.5t-38.5 -92.5z" glyph-name="d" horiz-adv-x="624" unicode="d"/><glyph d="M303 -11q-110 0 -191.5 78t-81.5 187t78 186.5t186 77.5q117 0 196 -91t57 -224h-372q14 -42 47 -66t81 -24q78 0 119 53l111 -53q-70 -124 -230 -124zM178 310h234q-12 38 -42 61t-76 23q-41 0 -71.5 -23.5t-44.5 -60.5z" glyph-name="e" horiz-adv-x="581" unicode="e"/><glyph d="M115 0v382h-85v125h85v51q0 95 49 144.5t133 49.5q45 0 84 -19.5t62 -48.5l-80 -81q-29 25 -57 25t-43 -19.5t-15 -50.5v-51h144v-125h-144v-382h-133z" glyph-name="f" horiz-adv-x="448" unicode="f"/><glyph d="M308 -238q-83 0 -152.5 34t-101.5 95l123 60q37 -55 131 -55q61 0 96.5 33.5t35.5 90.5v25q-67 -56 -158 -56q-107 0 -179.5 77t-72.5 188q0 110 72.5 187t179.5 77q91 0 158 -56v45h133v-487q0 -119 -74 -188.5t-191 -69.5zM168 254q0 -55 38.5 -93.5t93.5 -38.5 t93.5 38.5t38.5 93.5q0 54 -38.5 92.5t-93.5 38.5t-93.5 -38.5t-38.5 -92.5z" glyph-name="g" horiz-adv-x="623" unicode="g"/><glyph d="M50 0v745h133v-281q54 54 137 54q113 0 173 -72t60 -184v-262h-134v262q0 51 -30.5 87t-86.5 36q-59 0 -89 -40.5t-30 -101.5v-243h-133z" glyph-name="h" unicode="h"/><glyph d="M56 0v507h133v-507h-133zM50 655q0 30 21 51.5t51 21.5t51.5 -21.5t21.5 -51.5t-21.5 -51.5t-51.5 -21.5t-51 21.5t-21 51.5z" glyph-name="i" horiz-adv-x="245" unicode="i"/><glyph d="M-15 -104q81 5 81 82v529h134v-529q0 -216 -215 -216v134zM60 655q0 30 21.5 51.5t51.5 21.5t51.5 -21.5t21.5 -51.5t-21.5 -51.5t-51.5 -21.5t-51.5 21.5t-21.5 51.5z" glyph-name="j" horiz-adv-x="256" unicode="j"/><glyph d="M50 0v745h134v-458l153 220h151l-167 -234l189 -273h-158l-168 250v-250h-134z" glyph-name="k" horiz-adv-x="515" unicode="k"/><glyph d="M50 0v745h134v-745h-134z" glyph-name="l" horiz-adv-x="234" unicode="l"/><glyph d="M50 0v507h134v-41q50 52 127 52q119 0 178 -88q66 88 174 88t166 -72t58 -184v-262h-134v262q0 50 -28 86.5t-80 36.5q-54 0 -82 -41t-28 -101v-243h-133v262q0 50 -28.5 86.5t-80.5 36.5q-54 0 -81.5 -40.5t-27.5 -101.5v-243h-134z" glyph-name="m" horiz-adv-x="937" unicode="m"/><glyph d="M50 0v507h134v-43q54 54 137 54q113 0 172.5 -72t59.5 -184v-262h-133v262q0 50 -30.5 86.5t-86.5 36.5q-59 0 -89 -40.5t-30 -101.5v-243h-134z" glyph-name="n" unicode="n"/><glyph d="M300 -11q-111 0 -190.5 77.5t-79.5 187.5q0 109 79.5 186.5t190.5 77.5q110 0 190 -77.5t80 -186.5q0 -110 -80 -187.5t-190 -77.5zM168 254q0 -55 38.5 -93.5t93.5 -38.5t93.5 38.5t38.5 93.5q0 54 -38.5 92.5t-93.5 38.5t-93.5 -38.5t-38.5 -92.5z" glyph-name="o" horiz-adv-x="600" unicode="o"/><glyph d="M50 -238v745h134v-45q67 56 157 56q107 0 180 -77t73 -187q0 -111 -73 -188t-180 -77q-90 0 -157 56v-283h-134zM192 254q0 -55 38.5 -93.5t93.5 -38.5t93.5 38.5t38.5 93.5q0 54 -38.5 92.5t-93.5 38.5t-93.5 -38.5t-38.5 -92.5z" glyph-name="p" horiz-adv-x="624" unicode="p"/><glyph d="M440 45q-67 -56 -158 -56q-107 0 -179.5 77t-72.5 188q0 110 72.5 187t179.5 77q91 0 158 -56v45h134v-745h-134v283zM168 254q0 -55 38.5 -93.5t93.5 -38.5t93.5 38.5t38.5 93.5q0 54 -38.5 92.5t-93.5 38.5t-93.5 -38.5t-38.5 -92.5z" glyph-name="q" horiz-adv-x="624" unicode="q"/><glyph d="M50 0v507h133v-66q55 77 155 77v-133q-78 0 -116.5 -39t-38.5 -148v-198h-133z" glyph-name="r" horiz-adv-x="363" unicode="r"/><glyph d="M240 -11q-85 0 -145 35.5t-70 109.5l136 21q2 -21 22.5 -36t56.5 -15q66 0 66 42q0 5 -1 8.5t-4 7t-6.5 6t-10 5t-12.5 4.5t-16 5t-18.5 5t-22.5 6t-26 7q-64 18 -104 54.5t-40 105.5q0 72 54.5 115t128.5 43q70 0 123.5 -34.5t66.5 -91.5l-128 -23q-3 12 -19 23t-40 11 q-23 0 -38 -11.5t-15 -28.5q0 -19 18.5 -28.5t75.5 -24.5q84 -24 114 -44q56 -38 56 -109q0 -83 -58.5 -125.5t-143.5 -42.5z" glyph-name="s" horiz-adv-x="467" unicode="s"/><glyph d="M280 -8q-83 0 -129.5 45.5t-46.5 139.5v205h-84v125h84v113h134v-113h138v-125h-138v-205q0 -60 56 -60q25 0 46 24l81 -81q-60 -68 -141 -68z" glyph-name="t" horiz-adv-x="441" unicode="t"/><glyph d="M283 -11q-113 0 -173 72t-60 184v262h134v-262q0 -51 30.5 -87t86.5 -36q59 0 89 40.5t30 101.5v243h133v-507h-133v43q-56 -54 -137 -54z" glyph-name="u" unicode="u"/><glyph d="M223 0l-208 507h143l136 -333l137 333h143l-208 -507h-143z" glyph-name="v" horiz-adv-x="589" unicode="v"/><glyph d="M201 0l-186 507h141l117 -320l106 320h113l105 -320l118 320h140l-186 -507h-132l-102 309l-102 -309h-132z" glyph-name="w" horiz-adv-x="870" unicode="w"/><glyph d="M15 0l186 260l-168 247h156l94 -143l95 143h156l-168 -247l186 -260h-156l-113 157l-112 -157h-156z" glyph-name="x" horiz-adv-x="567" unicode="x"/><glyph d="M125 -238l98 238l-208 507h142l135 -338l139 338h142l-305 -745h-143z" glyph-name="y" horiz-adv-x="588" unicode="y"/><glyph d="M30 0v125l256 257h-238v125h410v-125l-257 -257h274v-125h-445z" glyph-name="z" horiz-adv-x="505" unicode="z"/><glyph d="M370 -151q-51 0 -89.5 8t-72 27t-51.5 56.5t-18 92.5v157q0 66 -19 91t-60 25v89q41 0 60 25t19 90v157q0 55 18 92.5t51.5 57t72 27.5t89.5 8v-116q-59 0 -87 -26t-28 -87v-131q0 -101 -69 -142q69 -40 69 -142v-130q0 -61 28 -87t87 -26v-116z" glyph-name="braceleft" horiz-adv-x="420" unicode="{"/><glyph d="M80 -240v1092h133v-1092h-133z" glyph-name="bar" horiz-adv-x="293" unicode="|"/><glyph d="M50 -36q59 0 87 26t28 87v130q0 102 68 143q-68 39 -68 142v130q0 61 -28 87t-87 26v116q50 0 88.5 -8t72 -27t51.5 -56.5t18 -92.5v-158q0 -65 19.5 -90t60.5 -25v-89q-41 0 -60.5 -25t-19.5 -90v-158q0 -55 -18 -92.5t-51.5 -56.5t-72 -27t-88.5 -8v116z" glyph-name="braceright" horiz-adv-x="420" unicode="}"/><glyph d="M432 193q-17 0 -33.5 3t-27.5 7t-26 12t-21 12t-20 14.5t-17 12.5q-4 3 -11 8.5t-11 8t-10 6.5t-11 5.5t-11 3t-13 1.5q-33 0 -51 -64l-119 35q40 154 150 154q14 0 27.5 -1.5t26 -6.5t20.5 -8t20.5 -11.5t16 -10.5t16 -12t13.5 -11q46 -34 72 -34q37 0 51 57l121 -33 q-40 -148 -152 -148z" glyph-name="asciitilde" horiz-adv-x="634" unicode="~"/><glyph d="M86 -193l9 482h124l9 -482h-142zM80 441q0 32 22.5 54.5t54.5 22.5t55 -22.5t23 -54.5t-23 -54.5t-55 -22.5t-54.5 22.5t-22.5 54.5z" glyph-name="exclamdown" horiz-adv-x="315" unicode="¡"/><glyph d="M266 88q-96 16 -161 90t-65 172q0 97 65 171t161 90v89h89v-90q60 -10 110.5 -45.5t80.5 -87.5l-123 -60q-39 64 -113 64q-55 0 -93.5 -38.5t-38.5 -92.5q0 -55 38.5 -93.5t93.5 -38.5q74 0 113 64l123 -60q-30 -52 -80.5 -87.5t-110.5 -45.5v-89h-89v88z" glyph-name="cent" horiz-adv-x="586" unicode="¢"/><glyph d="M60 133q35 4 67.5 37t32.5 88q0 16 -7 39h-93v80h57q-32 68 -32 121q0 98 65 155.5t163 57.5q75 0 131 -43t77 -103l-124 -53q-22 66 -86 66q-39 0 -61.5 -26t-22.5 -63q0 -11 2 -22t7 -24t8 -20.5t11 -24t11 -21.5h201v-80h-175q1 -7 1 -21q0 -90 -68 -143h349v-133 h-514v133z" glyph-name="sterling" horiz-adv-x="634" unicode="£"/><glyph d="M92 125l-52 49l67 71q-33 47 -33 105q0 57 33 104l-67 72l52 48l67 -72q46 28 95 28q51 0 94 -27l67 71l52 -48l-67 -72q34 -49 34 -104q0 -56 -34 -105l67 -71l-52 -49l-67 72q-43 -27 -94 -27t-95 27zM163 350q0 -38 26.5 -64.5t64.5 -26.5t64.5 26.5t26.5 64.5 t-26.5 64.5t-64.5 26.5t-64.5 -26.5t-26.5 -64.5z" glyph-name="currency" horiz-adv-x="507" unicode="¤"/><glyph d="M275 0v140h-152v80h152v51h-152v80h122l-235 349h163l174 -263l173 263h163l-235 -349h122v-80h-152v-51h152v-80h-152v-140h-143z" glyph-name="yen" horiz-adv-x="693" unicode="¥"/><glyph d="M80 452v400h134v-400h-134zM80 -240v399h134v-399h-134z" glyph-name="brokenbar" horiz-adv-x="294" unicode="¦"/><glyph d="M281 -194q-91 0 -157 51.5t-74 128.5l133 14q3 -21 29.5 -41t68.5 -20q43 0 68.5 19t25.5 52q0 25 -24.5 42.5t-90.5 38.5q-34 10 -56.5 18t-52.5 23.5t-47.5 33t-30.5 44t-13 59.5q0 84 70 124q-44 47 -44 121q0 88 67 143t169 55q91 0 157 -51.5t74 -128.5l-133 -14 q-2 21 -28.5 40.5t-69.5 19.5q-42 0 -67.5 -18.5t-25.5 -51.5q0 -25 24 -42.5t91 -38.5q35 -11 56.5 -18.5t51.5 -23.5t47.5 -33t30.5 -44t13 -59q0 -83 -69 -124q43 -48 43 -121q0 -88 -67 -143t-169 -55zM185 288q0 -22 25 -35t89 -34q65 -24 82 -31q37 9 37 41 q0 21 -23.5 34.5t-79.5 32.5q-7 2 -10 3q-66 23 -82 31q-38 -10 -38 -42z" glyph-name="section" unicode="§"/><glyph d="M401 139q-88 0 -150.5 61.5t-62.5 149.5q0 87 62.5 148.5t150.5 61.5q106 0 170 -85l-66 -50q-37 52 -104 52q-54 0 -92 -37t-38 -90q0 -54 38 -91t92 -37q67 0 104 52l66 -50q-64 -85 -170 -85zM30 350q0 153 108.5 261.5t261.5 108.5t261.5 -108.5t108.5 -261.5 q0 -154 -108.5 -262.5t-261.5 -108.5t-261.5 108.5t-108.5 262.5zM92 350q0 -128 90 -218t218 -90t218 90t90 218q0 127 -90.5 217t-217.5 90t-217.5 -90t-90.5 -217z" glyph-name="copyright" horiz-adv-x="800" unicode="©"/><glyph d="M429 106l-138 192l138 192h146l-139 -192l139 -192h-146zM50 298l139 192h145l-139 -192l139 -192h-145z" glyph-name="guillemotleft" horiz-adv-x="625" unicode="«"/><glyph d="M400 -21q-153 0 -261.5 108.5t-108.5 262.5q0 153 108.5 261.5t261.5 108.5t261.5 -108.5t108.5 -261.5q0 -154 -108.5 -262.5t-261.5 -108.5zM92 350q0 -128 90 -218t218 -90t218 90t90 218q0 127 -90.5 217t-217.5 90t-217.5 -90t-90.5 -217zM258 146v427h148 q72 0 112.5 -38t40.5 -97q0 -86 -77 -120l107 -172h-102l-92 157h-51v-157h-86zM344 385h62q65 0 65 53q0 54 -65 54h-62v-107z" glyph-name="registered" horiz-adv-x="800" unicode="®"/><glyph d="M200 381q-66 0 -113 46.5t-47 112.5t47 113t113 47q65 0 112 -47t47 -113t-47 -112.5t-112 -46.5zM129 540q0 -29 21 -49.5t50 -20.5t49.5 20.5t20.5 49.5t-20.5 50t-49.5 21t-50 -21t-21 -50z" glyph-name="degree" horiz-adv-x="399" unicode="°"/><glyph d="M190 173v112h-130v133h130v113h134v-113h130v-133h-130v-112h-134zM60 0v125h394v-125h-394z" glyph-name="plusminus" horiz-adv-x="514" unicode="±"/><glyph d="M225 340q-80 8 -132.5 55.5t-52.5 124.5q0 83 61 131.5t151 48.5h335v-106h-72v-736h-106v736h-77v-736h-107v482z" glyph-name="paragraph" horiz-adv-x="627" unicode="¶"/><glyph d="M291 106l139 192l-139 192h145l139 -192l-139 -192h-145zM50 106l139 192l-139 192h145l139 -192l-139 -192h-145z" glyph-name="guillemotright" horiz-adv-x="625" unicode="»"/><glyph d="M256 -205q-92 0 -154 61.5t-62 147.5q0 51 18 93t35 61t52 52q23 21 33 31t19 23.5t9 24.5h125q-1 -39 -16.5 -72t-27 -46t-41.5 -44q-34 -35 -49 -60.5t-15 -58.5q0 -28 19.5 -49t54.5 -21q56 0 70 69l143 -10q-14 -90 -70 -146t-143 -56zM188 441q0 32 23 54.5t55 22.5 t54.5 -22.5t22.5 -54.5t-22.5 -54.5t-54.5 -22.5t-55 22.5t-23 54.5z" glyph-name="questiondown" horiz-adv-x="499" unicode="¿"/><glyph d="M10 0l266 700h168l266 -700h-156l-59 166h-270l-58 -166h-157zM219 888h132l65 -138h-110zM270 290h181l-91 255z" glyph-name="Agrave" horiz-adv-x="720" unicode="À"/><glyph d="M10 0l266 700h168l266 -700h-156l-59 166h-270l-58 -166h-157zM270 290h181l-91 255zM309 750l66 138h131l-87 -138h-110z" glyph-name="Aacute" horiz-adv-x="720" unicode="Á"/><glyph d="M10 0l266 700h168l266 -700h-156l-59 166h-270l-58 -166h-157zM190 750l111 138h119l111 -138h-119l-52 64l-51 -64h-119zM270 290h181l-91 255z" glyph-name="Acircumflex" horiz-adv-x="720" unicode="Â"/><glyph d="M10 0l266 700h168l266 -700h-156l-59 166h-270l-58 -166h-157zM187 774q21 98 108 98q23 0 63.5 -20.5t59.5 -20.5q23 0 32 33l83 -22q-21 -100 -102 -100q-27 0 -68.5 20.5t-61.5 20.5q-23 0 -31 -31zM270 290h181l-91 255z" glyph-name="Atilde" horiz-adv-x="720" unicode="Ã"/><glyph d="M10 0l266 700h168l266 -700h-156l-59 166h-270l-58 -166h-157zM195 832q0 27 19 46t46 19t46 -19t19 -46t-19 -46t-46 -19t-46 19t-19 46zM270 290h181l-91 255zM394 832q0 27 19.5 46t46.5 19t46 -19t19 -46t-19 -46t-46 -19t-46.5 19t-19.5 46z" glyph-name="Adieresis" horiz-adv-x="720" unicode="Ä"/><glyph d="M10 0l266 700h168l266 -700h-156l-59 166h-270l-58 -166h-157zM244 855q0 48 34 82t82 34t82 -34t34 -82t-34 -82t-82 -34t-82 34t-34 82zM270 290h181l-91 255zM315 855q0 -19 13 -32t32 -13q18 0 31 13t13 32q0 18 -13 31t-31 13q-19 0 -32 -13t-13 -31z" glyph-name="Aring" horiz-adv-x="720" unicode="Å"/><glyph d="M10 0l347 700h498v-133h-260v-141h242v-134h-242v-158h269v-134h-411v165h-208l-78 -165h-157zM303 290h150v277h-20z" glyph-name="AE" horiz-adv-x="914" unicode="Æ"/><glyph d="M386 -309q-64 0 -116 34l42 91q40 -20 66 -20q51 0 51 41q0 16 -10.5 25.5t-29.5 9.5q-16 0 -34 -12l-57 48l44 84q-135 17 -226 119t-91 239q0 150 107 256t257 106q88 0 165 -39.5t128 -107.5l-113 -86q-67 90 -180 90q-92 0 -157 -64t-65 -155t65 -155t157 -64 q58 0 108 27.5t80 74.5l113 -87q-45 -66 -115 -107.5t-152 -48.5l-24 -44h11q47 0 87.5 -27.5t40.5 -86.5q0 -71 -43 -106t-109 -35z" glyph-name="Ccedilla" horiz-adv-x="705" unicode="Ç"/><glyph d="M60 0v700h402v-133h-260v-141h242v-133h-242v-159h269v-134h-411zM137 888h132l65 -138h-110z" glyph-name="Egrave" horiz-adv-x="521" unicode="È"/><glyph d="M60 0v700h402v-133h-260v-141h242v-133h-242v-159h269v-134h-411zM201 750l66 138h131l-87 -138h-110z" glyph-name="Eacute" horiz-adv-x="521" unicode="É"/><glyph d="M60 0v700h402v-133h-260v-141h242v-133h-242v-159h269v-134h-411zM90 750l111 138h119l111 -138h-119l-52 64l-51 -64h-119z" glyph-name="Ecircumflex" horiz-adv-x="521" unicode="Ê"/><glyph d="M60 0v700h402v-133h-260v-141h242v-133h-242v-159h269v-134h-411zM97 832q0 27 19 46t46 19t46 -19t19 -46t-19 -46t-46 -19t-46 19t-19 46zM296 832q0 27 19.5 46t46.5 19t46 -19t19 -46t-19 -46t-46 -19t-46.5 19t-19.5 46z" glyph-name="Edieresis" horiz-adv-x="521" unicode="Ë"/><glyph d="M55 0v700h142v-700h-142zM-17 888h132l65 -138h-110z" glyph-name="Igrave" horiz-adv-x="252" unicode="Ì"/><glyph d="M55 0v700h142v-700h-142zM73 750l66 138h131l-87 -138h-110z" glyph-name="Iacute" horiz-adv-x="252" unicode="Í"/><glyph d="M55 0v700h142v-700h-142zM-44 750l111 138h119l111 -138h-119l-52 64l-51 -64h-119z" glyph-name="Icircumflex" horiz-adv-x="252" unicode="Î"/><glyph d="M55 0v700h142v-700h-142zM-39 832q0 27 19 46t46 19t46 -19t19 -46t-19 -46t-46 -19t-46 19t-19 46zM160 832q0 27 19.5 46t46.5 19t46 -19t19 -46t-19 -46t-46 -19t-46.5 19t-19.5 46z" glyph-name="Idieresis" horiz-adv-x="252" unicode="Ï"/><glyph d="M132 0v288h-107v125h107v287h202q170 0 281.5 -94.5t111.5 -255.5t-111.5 -255.5t-281.5 -94.5h-202zM274 134h60q109 0 179.5 57t70.5 159t-70.5 159.5t-179.5 57.5h-60v-154h171v-125h-171v-154z" glyph-name="Eth" horiz-adv-x="757" unicode="Ð"/><glyph d="M60 0v700h163l298 -473v473h143v-700h-163l-299 474v-474h-142zM189 774q21 98 108 98q23 0 63.5 -20.5t59.5 -20.5q23 0 32 33l83 -22q-21 -100 -102 -100q-27 0 -68.5 20.5t-61.5 20.5q-23 0 -31 -31z" glyph-name="Ntilde" horiz-adv-x="724" unicode="Ñ"/><glyph d="M389 -11q-151 0 -257.5 105.5t-106.5 255.5q0 151 106.5 256.5t257.5 105.5q150 0 257 -106t107 -256t-107 -255.5t-257 -105.5zM167 350q0 -91 65 -155t157 -64t157 64t65 155t-65 155.5t-157 64.5t-157 -64.5t-65 -155.5zM247 888h132l65 -138h-110z" glyph-name="Ograve" horiz-adv-x="778" unicode="Ò"/><glyph d="M389 -11q-151 0 -257.5 105.5t-106.5 255.5q0 151 106.5 256.5t257.5 105.5q150 0 257 -106t107 -256t-107 -255.5t-257 -105.5zM167 350q0 -91 65 -155t157 -64t157 64t65 155t-65 155.5t-157 64.5t-157 -64.5t-65 -155.5zM329 750l66 138h131l-87 -138h-110z" glyph-name="Oacute" horiz-adv-x="778" unicode="Ó"/><glyph d="M389 -11q-151 0 -257.5 105.5t-106.5 255.5q0 151 106.5 256.5t257.5 105.5q150 0 257 -106t107 -256t-107 -255.5t-257 -105.5zM167 350q0 -91 65 -155t157 -64t157 64t65 155t-65 155.5t-157 64.5t-157 -64.5t-65 -155.5zM219 750l111 138h119l111 -138h-119l-52 64 l-51 -64h-119z" glyph-name="Ocircumflex" horiz-adv-x="778" unicode="Ô"/><glyph d="M389 -11q-151 0 -257.5 105.5t-106.5 255.5q0 151 106.5 256.5t257.5 105.5q150 0 257 -106t107 -256t-107 -255.5t-257 -105.5zM167 350q0 -91 65 -155t157 -64t157 64t65 155t-65 155.5t-157 64.5t-157 -64.5t-65 -155.5zM216 774q21 98 108 98q23 0 63.5 -20.5 t59.5 -20.5q23 0 32 33l83 -22q-21 -100 -102 -100q-27 0 -68.5 20.5t-61.5 20.5q-23 0 -31 -31z" glyph-name="Otilde" horiz-adv-x="778" unicode="Õ"/><glyph d="M389 -11q-151 0 -257.5 105.5t-106.5 255.5q0 151 106.5 256.5t257.5 105.5q150 0 257 -106t107 -256t-107 -255.5t-257 -105.5zM167 350q0 -91 65 -155t157 -64t157 64t65 155t-65 155.5t-157 64.5t-157 -64.5t-65 -155.5zM224 832q0 27 19 46t46 19t46 -19t19 -46 t-19 -46t-46 -19t-46 19t-19 46zM423 832q0 27 19.5 46t46.5 19t46 -19t19 -46t-19 -46t-46 -19t-46.5 19t-19.5 46z" glyph-name="Odieresis" horiz-adv-x="778" unicode="Ö"/><glyph d="M154 112l-94 94l91 92l-91 92l94 95l92 -92l92 92l94 -95l-92 -92l92 -92l-94 -94l-92 92z" glyph-name="multiply" horiz-adv-x="492" unicode="×"/><glyph d="M399 -11q-123 0 -220 73l-76 -70l-83 90l74 70q-60 91 -60 198q0 150 107 256t258 106q122 0 220 -74l75 71l84 -91l-75 -69q60 -90 60 -199q0 -150 -107 -255.5t-257 -105.5zM177 350q0 -53 24 -99l310 288q-52 30 -112 30q-92 0 -157 -64t-65 -155zM286 161 q52 -30 113 -30q92 0 157 64t65 155q0 53 -25 100z" glyph-name="Oslash" horiz-adv-x="798" unicode="Ø"/><glyph d="M350 -11q-138 0 -214 81.5t-76 221.5v408h142v-408q0 -75 38 -118t110 -43t110 43t38 118v408h142v-408q0 -140 -76 -221.5t-214 -81.5zM223 888h132l65 -138h-110z" glyph-name="Ugrave" horiz-adv-x="700" unicode="Ù"/><glyph d="M350 -11q-138 0 -214 81.5t-76 221.5v408h142v-408q0 -75 38 -118t110 -43t110 43t38 118v408h142v-408q0 -140 -76 -221.5t-214 -81.5zM295 750l66 138h131l-87 -138h-110z" glyph-name="Uacute" horiz-adv-x="700" unicode="Ú"/><glyph d="M350 -11q-138 0 -214 81.5t-76 221.5v408h142v-408q0 -75 38 -118t110 -43t110 43t38 118v408h142v-408q0 -140 -76 -221.5t-214 -81.5zM180 750l111 138h119l111 -138h-119l-52 64l-51 -64h-119z" glyph-name="Ucircumflex" horiz-adv-x="700" unicode="Û"/><glyph d="M350 -11q-138 0 -214 81.5t-76 221.5v408h142v-408q0 -75 38 -118t110 -43t110 43t38 118v408h142v-408q0 -140 -76 -221.5t-214 -81.5zM185 832q0 27 19 46t46 19t46 -19t19 -46t-19 -46t-46 -19t-46 19t-19 46zM384 832q0 27 19.5 46t46.5 19t46 -19t19 -46t-19 -46 t-46 -19t-46.5 19t-19.5 46z" glyph-name="Udieresis" horiz-adv-x="700" unicode="Ü"/><glyph d="M280 0v306l-265 394h163l173 -262l173 262h163l-265 -394v-306h-142zM298 750l66 138h131l-87 -138h-110z" glyph-name="Yacute" horiz-adv-x="702" unicode="Ý"/><glyph d="M60 0v700h143v-119h80q117 0 186 -65t69 -166t-68.5 -165.5t-186.5 -64.5h-80v-120h-143zM203 254h80q57 0 83.5 26.5t26.5 69.5t-26.5 70t-83.5 27h-80v-193z" glyph-name="Thorn" horiz-adv-x="573" unicode="Þ"/><glyph d="M265 131q59 0 96.5 23t37.5 73q0 87 -134 87v116h6q41 0 64 21.5t23 54.5q0 30 -22.5 51t-61.5 21q-42 0 -66.5 -30t-24.5 -80v-468h-133v468q0 121 65 182.5t157 61.5q88 0 150.5 -54.5t62.5 -144.5q0 -80 -62 -127q118 -56 118 -177q0 -108 -78 -166t-198 -55v143z" glyph-name="germandbls" horiz-adv-x="571" unicode="ß"/><glyph d="M282 -11q-107 0 -179.5 77t-72.5 188q0 110 72.5 187t179.5 77q91 0 158 -56v45h134v-507h-134v45q-67 -56 -158 -56zM166 698h132l65 -138h-110zM168 254q0 -55 38.5 -93.5t93.5 -38.5t93.5 38.5t38.5 93.5q0 54 -38.5 92.5t-93.5 38.5t-93.5 -38.5t-38.5 -92.5z" glyph-name="agrave" horiz-adv-x="624" unicode="à"/><glyph d="M282 -11q-107 0 -179.5 77t-72.5 188q0 110 72.5 187t179.5 77q91 0 158 -56v45h134v-507h-134v45q-67 -56 -158 -56zM168 254q0 -55 38.5 -93.5t93.5 -38.5t93.5 38.5t38.5 93.5q0 54 -38.5 92.5t-93.5 38.5t-93.5 -38.5t-38.5 -92.5zM233 560l66 138h131l-87 -138h-110 z" glyph-name="aacute" horiz-adv-x="624" unicode="á"/><glyph d="M282 -11q-107 0 -179.5 77t-72.5 188q0 110 72.5 187t179.5 77q91 0 158 -56v45h134v-507h-134v45q-67 -56 -158 -56zM130 560l111 138h119l111 -138h-119l-52 64l-51 -64h-119zM168 254q0 -55 38.5 -93.5t93.5 -38.5t93.5 38.5t38.5 93.5q0 54 -38.5 92.5t-93.5 38.5 t-93.5 -38.5t-38.5 -92.5z" glyph-name="acircumflex" horiz-adv-x="624" unicode="â"/><glyph d="M282 -11q-107 0 -179.5 77t-72.5 188q0 110 72.5 187t179.5 77q91 0 158 -56v45h134v-507h-134v45q-67 -56 -158 -56zM120 591q21 98 108 98q23 0 63.5 -20.5t59.5 -20.5q23 0 32 33l83 -22q-21 -100 -102 -100q-27 0 -68.5 20.5t-61.5 20.5q-23 0 -31 -31zM168 254 q0 -55 38.5 -93.5t93.5 -38.5t93.5 38.5t38.5 93.5q0 54 -38.5 92.5t-93.5 38.5t-93.5 -38.5t-38.5 -92.5z" glyph-name="atilde" horiz-adv-x="624" unicode="ã"/><glyph d="M282 -11q-107 0 -179.5 77t-72.5 188q0 110 72.5 187t179.5 77q91 0 158 -56v45h134v-507h-134v45q-67 -56 -158 -56zM137 632q0 27 19 46t46 19t46 -19t19 -46t-19 -46t-46 -19t-46 19t-19 46zM168 254q0 -55 38.5 -93.5t93.5 -38.5t93.5 38.5t38.5 93.5 q0 54 -38.5 92.5t-93.5 38.5t-93.5 -38.5t-38.5 -92.5zM336 632q0 27 19.5 46t46.5 19t46 -19t19 -46t-19 -46t-46 -19t-46.5 19t-19.5 46z" glyph-name="adieresis" horiz-adv-x="624" unicode="ä"/><glyph d="M282 -11q-107 0 -179.5 77t-72.5 188q0 110 72.5 187t179.5 77q91 0 158 -56v45h134v-507h-134v45q-67 -56 -158 -56zM168 254q0 -55 38.5 -93.5t93.5 -38.5t93.5 38.5t38.5 93.5q0 54 -38.5 92.5t-93.5 38.5t-93.5 -38.5t-38.5 -92.5zM184 666q0 48 34 82t82 34t82 -34 t34 -82t-34 -82t-82 -34t-82 34t-34 82zM255 666q0 -19 13 -32t32 -13q18 0 31 13t13 32q0 18 -13 31t-31 13q-19 0 -32 -13t-13 -31z" glyph-name="aring" horiz-adv-x="624" unicode="å"/><glyph d="M283 -11q-107 0 -180 77t-73 188q0 110 73 187.5t180 77.5q88 0 158 -57v45h133v-55q70 67 167 67q117 0 196 -91.5t56 -224.5h-371q13 -42 46.5 -66t81.5 -24q76 0 119 53l111 -53q-70 -124 -230 -124q-104 0 -176 70v-59h-133v46q-68 -57 -158 -57zM168 254 q0 -55 39 -93.5t94 -38.5q54 0 93 38.5t39 93.5q0 54 -39 92.5t-93 38.5q-55 0 -94 -38.5t-39 -92.5zM625 310h233q-11 38 -41.5 61t-75.5 23q-41 0 -71.5 -23.5t-44.5 -60.5z" glyph-name="ae" horiz-adv-x="1028" unicode="æ"/><glyph d="M284 -309q-63 0 -117 34l42 91q40 -20 67 -20q51 0 51 41q0 16 -10.5 25.5t-29.5 9.5q-11 0 -35 -12l-56 48l45 87q-91 21 -151 93t-60 165q0 110 80 187.5t190 77.5q75 0 138 -37.5t99 -99.5l-123 -60q-40 64 -114 64q-54 0 -93 -38.5t-39 -93.5q0 -54 39 -92.5 t93 -38.5q75 0 114 64l123 -60q-33 -58 -91 -95t-126 -42l-23 -43h11q47 0 87 -27.5t40 -86.5q0 -71 -42.5 -106t-108.5 -35z" glyph-name="ccedilla" horiz-adv-x="562" unicode="ç"/><glyph d="M303 -11q-110 0 -191.5 78t-81.5 187t78 186.5t186 77.5q117 0 196 -91t57 -224h-372q14 -42 47 -66t81 -24q78 0 119 53l111 -53q-70 -124 -230 -124zM152 698h132l65 -138h-110zM178 310h234q-12 38 -42 61t-76 23q-41 0 -71.5 -23.5t-44.5 -60.5z" glyph-name="egrave" horiz-adv-x="581" unicode="è"/><glyph d="M303 -11q-110 0 -191.5 78t-81.5 187t78 186.5t186 77.5q117 0 196 -91t57 -224h-372q14 -42 47 -66t81 -24q78 0 119 53l111 -53q-70 -124 -230 -124zM178 310h234q-12 38 -42 61t-76 23q-41 0 -71.5 -23.5t-44.5 -60.5zM229 560l66 138h131l-87 -138h-110z" glyph-name="eacute" horiz-adv-x="581" unicode="é"/><glyph d="M303 -11q-110 0 -191.5 78t-81.5 187t78 186.5t186 77.5q117 0 196 -91t57 -224h-372q14 -42 47 -66t81 -24q78 0 119 53l111 -53q-70 -124 -230 -124zM120 560l111 138h119l111 -138h-119l-52 64l-51 -64h-119zM178 310h234q-12 38 -42 61t-76 23q-41 0 -71.5 -23.5 t-44.5 -60.5z" glyph-name="ecircumflex" horiz-adv-x="581" unicode="ê"/><glyph d="M303 -11q-110 0 -191.5 78t-81.5 187t78 186.5t186 77.5q117 0 196 -91t57 -224h-372q14 -42 47 -66t81 -24q78 0 119 53l111 -53q-70 -124 -230 -124zM125 632q0 27 19 46t46 19t46 -19t19 -46t-19 -46t-46 -19t-46 19t-19 46zM178 310h234q-12 38 -42 61t-76 23 q-41 0 -71.5 -23.5t-44.5 -60.5zM324 632q0 27 19.5 46t46.5 19t46 -19t19 -46t-19 -46t-46 -19t-46.5 19t-19.5 46z" glyph-name="edieresis" horiz-adv-x="581" unicode="ë"/><glyph d="M56 0v507h133v-507h-133zM-21 698h132l65 -138h-110z" glyph-name="igrave" horiz-adv-x="245" unicode="ì"/><glyph d="M56 0v507h133v-507h-133zM68 560l66 138h131l-87 -138h-110z" glyph-name="iacute" horiz-adv-x="245" unicode="í"/><glyph d="M56 0v507h133v-507h-133zM-48 560l111 138h119l111 -138h-119l-52 64l-51 -64h-119z" glyph-name="icircumflex" horiz-adv-x="245" unicode="î"/><glyph d="M56 0v507h133v-507h-133zM-43 632q0 27 19 46t46 19t46 -19t19 -46t-19 -46t-46 -19t-46 19t-19 46zM156 632q0 27 19.5 46t46.5 19t46 -19t19 -46t-19 -46t-46 -19t-46.5 19t-19.5 46z" glyph-name="idieresis" horiz-adv-x="245" unicode="ï"/><glyph d="M279 -11q-103 0 -176 73t-73 176q0 102 72.5 171t176.5 69q33 0 61 -7q-34 55 -79 96l-106 -74l-56 80l81 57q-53 32 -112 53l42 106q88 -36 166 -92l119 83l56 -80l-97 -68q174 -165 174 -394q0 -104 -73 -176.5t-176 -72.5zM164 238q0 -48 33.5 -82t81.5 -34t82 34 t34 82t-34 81.5t-82 33.5t-81.5 -33.5t-33.5 -81.5z" glyph-name="eth" horiz-adv-x="558" unicode="ð"/><glyph d="M50 0v507h134v-43q54 54 137 54q113 0 172.5 -72t59.5 -184v-262h-133v262q0 50 -30.5 86.5t-86.5 36.5q-59 0 -89 -40.5t-30 -101.5v-243h-134zM110 591q21 98 108 98q23 0 63.5 -20.5t59.5 -20.5q23 0 32 33l83 -22q-21 -100 -102 -100q-27 0 -68.5 20.5t-61.5 20.5 q-23 0 -31 -31z" glyph-name="ntilde" unicode="ñ"/><glyph d="M300 -11q-111 0 -190.5 77.5t-79.5 187.5q0 109 79.5 186.5t190.5 77.5q110 0 190 -77.5t80 -186.5q0 -110 -80 -187.5t-190 -77.5zM160 698h132l65 -138h-110zM168 254q0 -55 38.5 -93.5t93.5 -38.5t93.5 38.5t38.5 93.5q0 54 -38.5 92.5t-93.5 38.5t-93.5 -38.5 t-38.5 -92.5z" glyph-name="ograve" horiz-adv-x="600" unicode="ò"/><glyph d="M300 -11q-111 0 -190.5 77.5t-79.5 187.5q0 109 79.5 186.5t190.5 77.5q110 0 190 -77.5t80 -186.5q0 -110 -80 -187.5t-190 -77.5zM168 254q0 -55 38.5 -93.5t93.5 -38.5t93.5 38.5t38.5 93.5q0 54 -38.5 92.5t-93.5 38.5t-93.5 -38.5t-38.5 -92.5zM240 560l66 138h131 l-87 -138h-110z" glyph-name="oacute" horiz-adv-x="600" unicode="ó"/><glyph d="M300 -11q-111 0 -190.5 77.5t-79.5 187.5q0 109 79.5 186.5t190.5 77.5q110 0 190 -77.5t80 -186.5q0 -110 -80 -187.5t-190 -77.5zM130 560l111 138h119l111 -138h-119l-52 64l-51 -64h-119zM168 254q0 -55 38.5 -93.5t93.5 -38.5t93.5 38.5t38.5 93.5q0 54 -38.5 92.5 t-93.5 38.5t-93.5 -38.5t-38.5 -92.5z" glyph-name="ocircumflex" horiz-adv-x="600" unicode="ô"/><glyph d="M300 -11q-111 0 -190.5 77.5t-79.5 187.5q0 109 79.5 186.5t190.5 77.5q110 0 190 -77.5t80 -186.5q0 -110 -80 -187.5t-190 -77.5zM127 591q21 98 108 98q23 0 63.5 -20.5t59.5 -20.5q23 0 32 33l83 -22q-21 -100 -102 -100q-27 0 -68.5 20.5t-61.5 20.5q-23 0 -31 -31z M168 254q0 -55 38.5 -93.5t93.5 -38.5t93.5 38.5t38.5 93.5q0 54 -38.5 92.5t-93.5 38.5t-93.5 -38.5t-38.5 -92.5z" glyph-name="otilde" horiz-adv-x="600" unicode="õ"/><glyph d="M300 -11q-111 0 -190.5 77.5t-79.5 187.5q0 109 79.5 186.5t190.5 77.5q110 0 190 -77.5t80 -186.5q0 -110 -80 -187.5t-190 -77.5zM135 632q0 27 19 46t46 19t46 -19t19 -46t-19 -46t-46 -19t-46 19t-19 46zM168 254q0 -55 38.5 -93.5t93.5 -38.5t93.5 38.5t38.5 93.5 q0 54 -38.5 92.5t-93.5 38.5t-93.5 -38.5t-38.5 -92.5zM334 632q0 27 19.5 46t46.5 19t46 -19t19 -46t-19 -46t-46 -19t-46.5 19t-19.5 46z" glyph-name="odieresis" horiz-adv-x="600" unicode="ö"/><glyph d="M60 231v134h429v-134h-429zM197 101q0 32 23 55t55 23t54.5 -23t22.5 -55t-22.5 -54.5t-54.5 -22.5t-55 22.5t-23 54.5zM197 495q0 32 23 55t55 23t54.5 -23t22.5 -55t-22.5 -54.5t-54.5 -22.5t-55 22.5t-23 54.5z" glyph-name="divide" horiz-adv-x="549" unicode="÷"/><glyph d="M79 -34l-69 75l76 71q-42 64 -42 142q0 109 79.5 187t190.5 78q85 0 156 -50l79 72l69 -74l-77 -72q43 -65 43 -141q0 -110 -80 -187.5t-190 -77.5q-87 0 -157 50zM182 254q0 -24 8 -46l178 165q-26 12 -54 12q-55 0 -93.5 -38.5t-38.5 -92.5zM260 134q24 -12 54 -12 q55 0 93.5 38.5t38.5 93.5q0 23 -8 45z" glyph-name="oslash" horiz-adv-x="628" unicode="ø"/><glyph d="M283 -11q-113 0 -173 72t-60 184v262h134v-262q0 -51 30.5 -87t86.5 -36q59 0 89 40.5t30 101.5v243h133v-507h-133v43q-56 -54 -137 -54zM172 698h132l65 -138h-110z" glyph-name="ugrave" unicode="ù"/><glyph d="M283 -11q-113 0 -173 72t-60 184v262h134v-262q0 -51 30.5 -87t86.5 -36q59 0 89 40.5t30 101.5v243h133v-507h-133v43q-56 -54 -137 -54zM248 560l66 138h131l-87 -138h-110z" glyph-name="uacute" unicode="ú"/><glyph d="M283 -11q-113 0 -173 72t-60 184v262h134v-262q0 -51 30.5 -87t86.5 -36q59 0 89 40.5t30 101.5v243h133v-507h-133v43q-56 -54 -137 -54zM131 560l111 138h119l111 -138h-119l-52 64l-51 -64h-119z" glyph-name="ucircumflex" unicode="û"/><glyph d="M283 -11q-113 0 -173 72t-60 184v262h134v-262q0 -51 30.5 -87t86.5 -36q59 0 89 40.5t30 101.5v243h133v-507h-133v43q-56 -54 -137 -54zM136 632q0 27 19 46t46 19t46 -19t19 -46t-19 -46t-46 -19t-46 19t-19 46zM335 632q0 27 19.5 46t46.5 19t46 -19t19 -46t-19 -46 t-46 -19t-46.5 19t-19.5 46z" glyph-name="udieresis" unicode="ü"/><glyph d="M125 -238l98 238l-208 507h142l135 -338l139 338h142l-305 -745h-143zM242 560l66 138h131l-87 -138h-110z" glyph-name="yacute" horiz-adv-x="588" unicode="ý"/><glyph d="M50 -238v983h134v-283q68 57 158 57q107 0 179.5 -77.5t72.5 -187.5q0 -111 -72.5 -188t-179.5 -77q-92 0 -158 57v-284h-134zM192 254q0 -55 38.5 -93.5t93.5 -38.5t93.5 38.5t38.5 93.5q0 54 -38.5 92.5t-93.5 38.5t-93.5 -38.5t-38.5 -92.5z" glyph-name="thorn" horiz-adv-x="624" unicode="þ"/><glyph d="M125 -238l98 238l-208 507h142l135 -338l139 338h142l-305 -745h-143zM129 632q0 27 19 46t46 19t46 -19t19 -46t-19 -46t-46 -19t-46 19t-19 46zM328 632q0 27 19.5 46t46.5 19t46 -19t19 -46t-19 -46t-46 -19t-46.5 19t-19.5 46z" glyph-name="ydieresis" horiz-adv-x="588" unicode="ÿ"/><glyph d="M10 0l266 700h168l266 -700h-156l-59 166h-270l-58 -166h-157zM233 766v106h254v-106h-254zM270 290h181l-91 255z" glyph-name="Amacron" horiz-adv-x="720" unicode="Ā"/><glyph d="M282 -11q-107 0 -179.5 77t-72.5 188q0 110 72.5 187t179.5 77q91 0 158 -56v45h134v-507h-134v45q-67 -56 -158 -56zM168 254q0 -55 38.5 -93.5t93.5 -38.5t93.5 38.5t38.5 93.5q0 54 -38.5 92.5t-93.5 38.5t-93.5 -38.5t-38.5 -92.5zM177 576v106h254v-106h-254z" glyph-name="amacron" horiz-adv-x="624" unicode="ā"/><glyph d="M10 0l266 700h168l266 -700h-156l-59 166h-270l-58 -166h-157zM192 891h116q0 -23 13.5 -37t38.5 -14t38.5 14t13.5 37h116q0 -74 -48 -111.5t-120 -37.5t-120 37.5t-48 111.5zM270 290h181l-91 255z" glyph-name="Abreve" horiz-adv-x="720" unicode="Ă"/><glyph d="M282 -11q-107 0 -179.5 77t-72.5 188q0 110 72.5 187t179.5 77q91 0 158 -56v45h134v-507h-134v45q-67 -56 -158 -56zM134 711h116q0 -23 13.5 -37t38.5 -14t38.5 14t13.5 37h116q0 -74 -48 -111.5t-120 -37.5t-120 37.5t-48 111.5zM168 254q0 -55 38.5 -93.5t93.5 -38.5 t93.5 38.5t38.5 93.5q0 54 -38.5 92.5t-93.5 38.5t-93.5 -38.5t-38.5 -92.5z" glyph-name="abreve" horiz-adv-x="624" unicode="ă"/><glyph d="M719 -287q-77 -21 -143 10.5t-66 111.5q0 91 103 165h-59l-59 165h-269l-59 -165h-157l267 700h167l267 -700q-80 -59 -80 -111q0 -37 29 -49.5t59 -6.5v-120zM270 290h181l-90 255z" glyph-name="Aogonek" horiz-adv-x="725" unicode="Ą"/><glyph d="M581 -287q-35 -12 -71.5 -8t-67 16.5t-50 42.5t-19.5 71q0 93 103 165h-36v45q-68 -57 -158 -57q-107 0 -179.5 77.5t-72.5 187.5q0 111 72.5 188t179.5 77q92 0 158 -57v46h133v-507q-80 -59 -80 -111q0 -37 29 -49.5t59 -6.5v-120zM168 253q0 -54 38.5 -92.5 t93.5 -38.5t93.5 38.5t38.5 92.5q0 55 -38.5 93.5t-93.5 38.5t-93.5 -38.5t-38.5 -93.5z" glyph-name="aogonek" horiz-adv-x="624" unicode="ą"/><glyph d="M389 -11q-150 0 -257 105.5t-107 255.5t107 256t257 106q88 0 165 -39t128 -107l-113 -87q-68 91 -180 91q-92 0 -157 -64.5t-65 -155.5t65 -155t157 -64q58 0 107.5 27.5t80.5 74.5l113 -87q-50 -73 -129.5 -115t-171.5 -42zM310 750l66 138h131l-87 -138h-110z" glyph-name="Cacute" horiz-adv-x="705" unicode="Ć"/><glyph d="M300 -11q-110 0 -190 77.5t-80 187.5q0 109 80 186.5t190 77.5q75 0 138 -37.5t99 -99.5l-124 -60q-39 64 -113 64q-55 0 -93.5 -38.5t-38.5 -92.5q0 -55 38.5 -93.5t93.5 -38.5q74 0 113 64l124 -60q-36 -62 -99 -99.5t-138 -37.5zM230 560l66 138h131l-87 -138h-110z " glyph-name="cacute" horiz-adv-x="562" unicode="ć"/><glyph d="M300 -11q-110 0 -190 77.5t-80 187.5q0 109 80 186.5t190 77.5q75 0 138 -37.5t99 -99.5l-124 -60q-39 64 -113 64q-55 0 -93.5 -38.5t-38.5 -92.5q0 -55 38.5 -93.5t93.5 -38.5q74 0 113 64l124 -60q-36 -62 -99 -99.5t-138 -37.5zM119 560l111 138h119l111 -138h-119 l-52 64l-51 -64h-119z" glyph-name="ccircumflex" horiz-adv-x="562" unicode="ĉ"/><glyph d="M389 -11q-150 0 -257 105.5t-107 255.5t107 256t257 106q88 0 165 -39t128 -107l-113 -87q-68 91 -180 91q-92 0 -157 -64.5t-65 -155.5t65 -155t157 -64q58 0 107.5 27.5t80.5 74.5l113 -87q-50 -73 -129.5 -115t-171.5 -42zM307 832q0 27 19.5 46t46.5 19t46 -19 t19 -46t-19 -46t-46 -19t-46.5 19t-19.5 46z" glyph-name="Cdotaccent" horiz-adv-x="705" unicode="Ċ"/><glyph d="M300 -11q-110 0 -190 77.5t-80 187.5q0 109 80 186.5t190 77.5q75 0 138 -37.5t99 -99.5l-124 -60q-39 64 -113 64q-55 0 -93.5 -38.5t-38.5 -92.5q0 -55 38.5 -93.5t93.5 -38.5q74 0 113 64l124 -60q-36 -62 -99 -99.5t-138 -37.5zM223 632q0 27 19.5 46t46.5 19t46 -19 t19 -46t-19 -46t-46 -19t-46.5 19t-19.5 46z" glyph-name="cdotaccent" horiz-adv-x="562" unicode="ċ"/><glyph d="M389 -11q-150 0 -257 105.5t-107 255.5t107 256t257 106q88 0 165 -39t128 -107l-113 -87q-68 91 -180 91q-92 0 -157 -64.5t-65 -155.5t65 -155t157 -64q58 0 107.5 27.5t80.5 74.5l113 -87q-50 -73 -129.5 -115t-171.5 -42zM198 888h119l51 -64l52 64h118l-110 -138 h-119z" glyph-name="Ccaron" horiz-adv-x="705" unicode="Č"/><glyph d="M300 -11q-110 0 -190 77.5t-80 187.5q0 109 80 186.5t190 77.5q75 0 138 -37.5t99 -99.5l-124 -60q-39 64 -113 64q-55 0 -93.5 -38.5t-38.5 -92.5q0 -55 38.5 -93.5t93.5 -38.5q74 0 113 64l124 -60q-36 -62 -99 -99.5t-138 -37.5zM113 698h119l51 -64l52 64h118 l-110 -138h-119z" glyph-name="ccaron" horiz-adv-x="562" unicode="č"/><glyph d="M60 0v700h203q170 0 281.5 -94.5t111.5 -255.5t-112 -255.5t-281 -94.5h-203zM100 888h119l51 -64l52 64h118l-110 -138h-119zM203 134h60q108 0 178.5 57t70.5 159t-70.5 159.5t-178.5 57.5h-60v-433z" glyph-name="Dcaron" horiz-adv-x="686" unicode="Ď"/><glyph d="M283 -11q-107 0 -180 77t-73 188q0 110 73 187t180 77q90 0 157 -56v283h134v-745h-134v45q-67 -56 -157 -56zM168 254q0 -55 38.5 -93.5t93.5 -38.5t93.5 38.5t38.5 93.5q0 54 -38.5 92.5t-93.5 38.5t-93.5 -38.5t-38.5 -92.5zM624 562l68 183h124l-93 -183h-99z" glyph-name="dcaron" horiz-adv-x="624" unicode="ď"/><glyph d="M132 0v288h-107v125h107v287h202q170 0 281.5 -94.5t111.5 -255.5t-111.5 -255.5t-281.5 -94.5h-202zM274 134h60q109 0 179.5 57t70.5 159t-70.5 159.5t-179.5 57.5h-60v-154h171v-125h-171v-154z" glyph-name="Dcroat" horiz-adv-x="757" unicode="Đ"/><glyph d="M283 -11q-107 0 -180 77t-73 188q0 110 73 187.5t180 77.5q88 0 158 -57v114h-133v98h133v71h133v-71h88v-98h-88v-576h-133v46q-68 -57 -158 -57zM168 254q0 -55 39 -93.5t94 -38.5q54 0 93 38.5t39 93.5q0 54 -39 92.5t-93 38.5q-55 0 -94 -38.5t-39 -92.5z" glyph-name="dcroat" horiz-adv-x="672" unicode="đ"/><glyph d="M60 0v700h402v-133h-260v-141h242v-133h-242v-159h269v-134h-411zM138 766v106h254v-106h-254z" glyph-name="Emacron" horiz-adv-x="521" unicode="Ē"/><glyph d="M303 -11q-110 0 -191.5 78t-81.5 187t78 186.5t186 77.5q117 0 196 -91t57 -224h-372q14 -42 47 -66t81 -24q78 0 119 53l111 -53q-70 -124 -230 -124zM163 576v106h254v-106h-254zM178 310h234q-12 38 -42 61t-76 23q-41 0 -71.5 -23.5t-44.5 -60.5z" glyph-name="emacron" horiz-adv-x="581" unicode="ē"/><glyph d="M60 0v700h402v-133h-260v-141h242v-133h-242v-159h269v-134h-411zM206 832q0 27 19.5 46t46.5 19t46 -19t19 -46t-19 -46t-46 -19t-46.5 19t-19.5 46z" glyph-name="Edotaccent" horiz-adv-x="521" unicode="Ė"/><glyph d="M303 -11q-110 0 -191.5 78t-81.5 187t78 186.5t186 77.5q117 0 196 -91t57 -224h-372q14 -42 47 -66t81 -24q78 0 119 53l111 -53q-70 -124 -230 -124zM178 310h234q-12 38 -42 61t-76 23q-41 0 -71.5 -23.5t-44.5 -60.5zM225 632q0 27 19.5 46t46.5 19t46 -19t19 -46 t-19 -46t-46 -19t-46.5 19t-19.5 46z" glyph-name="edotaccent" horiz-adv-x="581" unicode="ė"/><glyph d="M479 -287q-77 -21 -142.5 10.5t-65.5 111.5q0 92 102 165h-313v700h402v-134h-259v-140h241v-134h-241v-158h268v-134q-80 -59 -80 -111q0 -37 29 -49.5t59 -6.5v-120z" glyph-name="Eogonek" horiz-adv-x="521" unicode="Ę"/><glyph d="M436 -287q-77 -21 -142.5 10.5t-65.5 111.5q0 84 87 154q-2 0 -6 -0.5t-6 -0.5q-110 0 -191.5 78t-81.5 187q0 110 78 187.5t186 77.5q117 0 196 -91t57 -224h-372q13 -41 46.5 -65.5t81.5 -24.5q78 0 119 53l111 -54q-36 -62 -95 -93q-33 -22 -61.5 -59t-28.5 -71 q0 -37 29 -49.5t59 -6.5v-120zM178 309h234q-12 39 -42 62t-76 23q-41 0 -71.5 -23.5t-44.5 -61.5z" glyph-name="eogonek" horiz-adv-x="581" unicode="ę"/><glyph d="M60 0v700h402v-133h-260v-141h242v-133h-242v-159h269v-134h-411zM89 888h119l51 -64l52 64h118l-110 -138h-119z" glyph-name="Ecaron" horiz-adv-x="521" unicode="Ě"/><glyph d="M303 -11q-110 0 -191.5 78t-81.5 187t78 186.5t186 77.5q117 0 196 -91t57 -224h-372q14 -42 47 -66t81 -24q78 0 119 53l111 -53q-70 -124 -230 -124zM120 698h119l51 -64l52 64h118l-110 -138h-119zM178 310h234q-12 38 -42 61t-76 23q-41 0 -71.5 -23.5t-44.5 -60.5z " glyph-name="ecaron" horiz-adv-x="581" unicode="ě"/><glyph d="M308 -238q-83 0 -152.5 34t-101.5 95l123 60q37 -55 131 -55q61 0 96.5 33.5t35.5 90.5v25q-67 -56 -158 -56q-107 0 -179.5 77t-72.5 188q0 110 72.5 187t179.5 77q91 0 158 -56v45h133v-487q0 -119 -74 -188.5t-191 -69.5zM115 560l111 138h119l111 -138h-119l-52 64 l-51 -64h-119zM168 254q0 -55 38.5 -93.5t93.5 -38.5t93.5 38.5t38.5 93.5q0 54 -38.5 92.5t-93.5 38.5t-93.5 -38.5t-38.5 -92.5z" glyph-name="gcircumflex" horiz-adv-x="623" unicode="ĝ"/><glyph d="M389 -10q-150 0 -257 105t-107 255t107 256t257 106q88 0 165 -39t128 -107l-113 -87q-68 91 -180 91q-92 0 -157 -64.5t-65 -155.5t65 -155t157 -64q154 0 192 135h-219v134h374v-36q0 -171 -94.5 -272.5t-252.5 -101.5zM212 891h116q0 -23 13.5 -37t38.5 -14t38.5 14 t13.5 37h116q0 -74 -48 -111.5t-120 -37.5t-120 37.5t-48 111.5z" glyph-name="Gbreve" horiz-adv-x="761" unicode="Ğ"/><glyph d="M308 -238q-83 0 -152.5 34t-101.5 95l123 60q37 -55 131 -55q61 0 96.5 33.5t35.5 90.5v25q-67 -56 -158 -56q-107 0 -179.5 77t-72.5 188q0 110 72.5 187t179.5 77q91 0 158 -56v45h133v-487q0 -119 -74 -188.5t-191 -69.5zM130 711h116q0 -23 13.5 -37t38.5 -14 t38.5 14t13.5 37h116q0 -74 -48 -111.5t-120 -37.5t-120 37.5t-48 111.5zM168 254q0 -55 38.5 -93.5t93.5 -38.5t93.5 38.5t38.5 93.5q0 54 -38.5 92.5t-93.5 38.5t-93.5 -38.5t-38.5 -92.5z" glyph-name="gbreve" horiz-adv-x="623" unicode="ğ"/><glyph d="M389 -10q-150 0 -257 105t-107 255t107 256t257 106q88 0 165 -39t128 -107l-113 -87q-68 91 -180 91q-92 0 -157 -64.5t-65 -155.5t65 -155t157 -64q154 0 192 135h-219v134h374v-36q0 -171 -94.5 -272.5t-252.5 -101.5zM315 832q0 27 19.5 46t46.5 19t46 -19t19 -46 t-19 -46t-46 -19t-46.5 19t-19.5 46z" glyph-name="Gdotaccent" horiz-adv-x="761" unicode="Ġ"/><glyph d="M308 -238q-83 0 -152.5 34t-101.5 95l123 60q37 -55 131 -55q61 0 96.5 33.5t35.5 90.5v25q-67 -56 -158 -56q-107 0 -179.5 77t-72.5 188q0 110 72.5 187t179.5 77q91 0 158 -56v45h133v-487q0 -119 -74 -188.5t-191 -69.5zM168 254q0 -55 38.5 -93.5t93.5 -38.5 t93.5 38.5t38.5 93.5q0 54 -38.5 92.5t-93.5 38.5t-93.5 -38.5t-38.5 -92.5zM224 632q0 27 19.5 46t46.5 19t46 -19t19 -46t-19 -46t-46 -19t-46.5 19t-19.5 46z" glyph-name="gdotaccent" horiz-adv-x="623" unicode="ġ"/><glyph d="M389 -10q-150 0 -257 105t-107 255t107 256t257 106q88 0 165 -39t128 -107l-113 -87q-68 91 -180 91q-92 0 -157 -64.5t-65 -155.5t65 -155t157 -64q154 0 192 135h-219v134h374v-36q0 -171 -94.5 -272.5t-252.5 -101.5zM247 -239l68 183h124l-93 -183h-99z" glyph-name="uni0122" horiz-adv-x="761" unicode="Ģ"/><glyph d="M308 -238q-83 0 -152.5 34t-101.5 95l123 60q37 -55 131 -55q61 0 96.5 33.5t35.5 90.5v25q-67 -56 -158 -56q-107 0 -179.5 77t-72.5 188q0 110 72.5 187t179.5 77q91 0 158 -56v45h133v-487q0 -119 -74 -188.5t-191 -69.5zM168 254q0 -55 38.5 -93.5t93.5 -38.5 t93.5 38.5t38.5 93.5q0 54 -38.5 92.5t-93.5 38.5t-93.5 -38.5t-38.5 -92.5zM230 560l87 138h110l-65 -138h-132z" glyph-name="uni0123" horiz-adv-x="623" unicode="ģ"/><glyph d="M50 0v745h133v-281q54 54 137 54q113 0 173 -72t60 -184v-262h-134v262q0 51 -30.5 87t-86.5 36q-59 0 -89 -40.5t-30 -101.5v-243h-133zM124 790l111 138h119l111 -138h-119l-52 64l-51 -64h-119z" glyph-name="hcircumflex" unicode="ĥ"/><glyph d="M99 0v498h-84v125h84v77h143v-77h319v77h142v-77h84v-125h-84v-498h-142v283h-319v-283h-143zM242 417h319v81h-319v-81z" glyph-name="Hbar" horiz-adv-x="802" unicode="Ħ"/><glyph d="M85 0v576h-75v98h75v71h133v-71h146v-98h-146v-112q55 55 137 55q113 0 173 -72t60 -184v-263h-134v263q0 50 -30.5 86t-86.5 36q-59 0 -89 -40.5t-30 -101.5v-243h-133z" glyph-name="hbar" horiz-adv-x="638" unicode="ħ"/><glyph d="M56 0v507h133v-507h-133zM-51 591q21 98 108 98q23 0 63.5 -20.5t59.5 -20.5q23 0 32 33l83 -22q-21 -100 -102 -100q-27 0 -68.5 20.5t-61.5 20.5q-23 0 -31 -31z" glyph-name="itilde" horiz-adv-x="245" unicode="ĩ"/><glyph d="M55 0v700h142v-700h-142zM-1 766v106h254v-106h-254z" glyph-name="Imacron" horiz-adv-x="252" unicode="Ī"/><glyph d="M56 0v507h133v-507h-133zM-5 576v106h254v-106h-254z" glyph-name="imacron" horiz-adv-x="245" unicode="ī"/><glyph d="M202 -287q-34 -12 -71 -8t-67.5 16.5t-50 42.5t-19.5 71q0 93 103 165h-45v700h142v-700q-80 -59 -80 -111q0 -37 29 -49.5t59 -6.5v-120z" glyph-name="Iogonek" horiz-adv-x="252" unicode="Į"/><glyph d="M197 -287q-35 -12 -71.5 -8t-67 16.5t-50 42.5t-19.5 71q0 93 103 165h-36v507h133v-507q-80 -59 -80 -111q0 -37 29 -49.5t59 -6.5v-120zM50 655q0 30 21 51t52 21q30 0 51 -21t21 -51t-21 -51.5t-51 -21.5q-31 0 -52 21.5t-21 51.5z" glyph-name="iogonek" horiz-adv-x="245" unicode="į"/><glyph d="M55 0v700h142v-700h-142zM61 832q0 27 19.5 46t46.5 19t46 -19t19 -46t-19 -46t-46 -19t-46.5 19t-19.5 46z" glyph-name="Idotaccent" horiz-adv-x="252" unicode="İ"/><glyph d="M56 0v507h133v-507h-133z" glyph-name="dotlessi" horiz-adv-x="245" unicode="ı"/><glyph d="M55 0v700h142v-700h-142zM272 140l138 37q3 -16 17.5 -31t42.5 -15q60 0 60 83v486h143v-486q0 -225 -200 -225q-85 0 -138 43.5t-63 107.5z" glyph-name="IJ" horiz-adv-x="733" unicode="Ĳ"/><glyph d="M56 0v507h133v-507h-133zM50 655q0 30 21 51.5t51 21.5t51.5 -21.5t21.5 -51.5t-21.5 -51.5t-51.5 -21.5t-51 21.5t-21 51.5zM230 -238v134q81 5 81 82v529h134v-529q0 -216 -215 -216zM305 655q0 30 21.5 51.5t51.5 21.5t51.5 -21.5t21.5 -51.5t-21.5 -51.5t-51.5 -21.5 t-51.5 21.5t-21.5 51.5z" glyph-name="ij" horiz-adv-x="501" unicode="ĳ"/><glyph d="M-15 -104q81 5 81 82v529h134v-529q0 -216 -215 -216v134zM-37 560l111 138h119l111 -138h-119l-52 64l-51 -64h-119z" glyph-name="jcircumflex" horiz-adv-x="250" unicode="ĵ"/><glyph d="M60 0v700h142v-338l229 338h160l-233 -345l262 -355h-182l-236 324v-324h-142zM193 -239l68 183h124l-93 -183h-99z" glyph-name="uni0136" horiz-adv-x="630" unicode="Ķ"/><glyph d="M50 0v745h134v-458l153 220h151l-167 -234l189 -273h-158l-168 250v-250h-134zM131 -239l68 183h124l-93 -183h-99z" glyph-name="uni0137" horiz-adv-x="515" unicode="ķ"/><glyph d="M60 0v700h143v-566h277v-134h-420zM79 750l66 138h131l-87 -138h-110z" glyph-name="Lacute" horiz-adv-x="530" unicode="Ĺ"/><glyph d="M50 0v745h134v-745h-134zM64 798l66 138h131l-87 -138h-110z" glyph-name="lacute" horiz-adv-x="234" unicode="ĺ"/><glyph d="M60 0v700h143v-566h277v-134h-420zM139 -239l68 183h124l-93 -183h-99z" glyph-name="uni013B" horiz-adv-x="530" unicode="Ļ"/><glyph d="M50 0v745h134v-745h-134zM-13 -239l68 183h124l-93 -183h-99z" glyph-name="uni013C" horiz-adv-x="234" unicode="ļ"/><glyph d="M60 0v700h143v-566h277v-134h-420zM-38 888h119l51 -64l52 64h118l-110 -138h-119z" glyph-name="Lcaron" horiz-adv-x="530" unicode="Ľ"/><glyph d="M50 0v745h134v-745h-134zM243 562l68 183h124l-93 -183h-99z" glyph-name="lcaron" horiz-adv-x="234" unicode="ľ"/><glyph d="M60 0v700h142v-567h278v-133h-420zM267 314q0 28 19.5 47t46.5 19t46 -19t19 -47q0 -27 -19 -46t-46 -19t-46.5 19t-19.5 46z" glyph-name="Ldot" horiz-adv-x="530" unicode="Ŀ"/><glyph d="M50 0v744h134v-744h-134zM236 314q0 28 19.5 47t46.5 19t46 -19t19 -47q0 -27 -19 -46t-46 -19t-46.5 19t-19.5 46z" glyph-name="ldot" horiz-adv-x="402" unicode="ŀ"/><glyph d="M124 0v193l-48 -25l-51 104l99 52v376h143v-301l134 70l52 -104l-186 -97v-134h277v-134h-420z" glyph-name="Lslash" horiz-adv-x="594" unicode="Ł"/><glyph d="M111 0v283l-57 -29l-44 85l101 52v354h133v-284l57 30l44 -85l-101 -53v-353h-133z" glyph-name="lslash" horiz-adv-x="355" unicode="ł"/><glyph d="M60 0v700h163l298 -473v473h143v-700h-163l-299 474v-474h-142zM310 750l66 138h131l-87 -138h-110z" glyph-name="Nacute" horiz-adv-x="724" unicode="Ń"/><glyph d="M50 0v507h134v-43q54 54 137 54q113 0 172.5 -72t59.5 -184v-262h-133v262q0 50 -30.5 86.5t-86.5 36.5q-59 0 -89 -40.5t-30 -101.5v-243h-134zM230 560l66 138h131l-87 -138h-110z" glyph-name="nacute" unicode="ń"/><glyph d="M60 0v700h163l298 -473v473h143v-700h-163l-299 474v-474h-142zM229 -239l68 183h124l-93 -183h-99z" glyph-name="uni0145" horiz-adv-x="724" unicode="Ņ"/><glyph d="M50 0v507h134v-43q54 54 137 54q113 0 172.5 -72t59.5 -184v-262h-133v262q0 50 -30.5 86.5t-86.5 36.5q-59 0 -89 -40.5t-30 -101.5v-243h-134zM179 -239l68 183h124l-93 -183h-99z" glyph-name="uni0146" unicode="ņ"/><glyph d="M60 0v700h163l298 -473v473h143v-700h-163l-299 474v-474h-142zM192 888h119l51 -64l52 64h118l-110 -138h-119z" glyph-name="Ncaron" horiz-adv-x="724" unicode="Ň"/><glyph d="M50 0v507h134v-43q54 54 137 54q113 0 172.5 -72t59.5 -184v-262h-133v262q0 50 -30.5 86.5t-86.5 36.5q-59 0 -89 -40.5t-30 -101.5v-243h-134zM117 698h119l51 -64l52 64h118l-110 -138h-119z" glyph-name="ncaron" unicode="ň"/><glyph d="M366 518q113 0 173 -72t60 -184v-262h-134v262q0 51 -30.5 87t-86.5 36q-59 0 -89 -40.5t-30 -101.5v-243h-133v507h133v-43q54 54 137 54zM-15 537l69 183h123l-93 -183h-99z" glyph-name="napostrophe" horiz-adv-x="649" unicode="ŉ"/><glyph d="M440 -95q81 5 81 82v13l-319 484v-484h-142v700h163l298 -453v453h143v-713q0 -115 -60.5 -170t-163.5 -55v143z" glyph-name="Eng" horiz-adv-x="724" unicode="Ŋ"/><glyph d="M338 -95q81 5 81 82v275q0 51 -30.5 87t-86.5 36q-59 0 -89 -40.5t-30 -101.5v-243h-133v507h133v-43q54 54 137 54q113 0 173 -72t60 -184v-275q0 -216 -215 -216v134z" glyph-name="eng" unicode="ŋ"/><glyph d="M389 -11q-151 0 -257.5 105.5t-106.5 255.5q0 151 106.5 256.5t257.5 105.5q150 0 257 -106t107 -256t-107 -255.5t-257 -105.5zM167 350q0 -91 65 -155t157 -64t157 64t65 155t-65 155.5t-157 64.5t-157 -64.5t-65 -155.5zM262 766v106h254v-106h-254z" glyph-name="Omacron" horiz-adv-x="778" unicode="Ō"/><glyph d="M300 -11q-111 0 -190.5 77.5t-79.5 187.5q0 109 79.5 186.5t190.5 77.5q110 0 190 -77.5t80 -186.5q0 -110 -80 -187.5t-190 -77.5zM168 254q0 -55 38.5 -93.5t93.5 -38.5t93.5 38.5t38.5 93.5q0 54 -38.5 92.5t-93.5 38.5t-93.5 -38.5t-38.5 -92.5zM173 576v106h254 v-106h-254z" glyph-name="omacron" horiz-adv-x="600" unicode="ō"/><glyph d="M389 -11q-151 0 -257.5 105.5t-106.5 255.5q0 151 106.5 256.5t257.5 105.5q150 0 257 -106t107 -256t-107 -255.5t-257 -105.5zM167 350q0 -91 65 -155t157 -64t157 64t65 155t-65 155.5t-157 64.5t-157 -64.5t-65 -155.5zM235 750l66 138h131l-86 -138h-111zM420 750 l66 138h131l-86 -138h-111z" glyph-name="Ohungarumlaut" horiz-adv-x="778" unicode="Ő"/><glyph d="M300 -11q-111 0 -190.5 77.5t-79.5 187.5q0 109 79.5 186.5t190.5 77.5q110 0 190 -77.5t80 -186.5q0 -110 -80 -187.5t-190 -77.5zM137 560l66 138h131l-86 -138h-111zM168 254q0 -55 38.5 -93.5t93.5 -38.5t93.5 38.5t38.5 93.5q0 54 -38.5 92.5t-93.5 38.5 t-93.5 -38.5t-38.5 -92.5zM322 560l66 138h131l-86 -138h-111z" glyph-name="ohungarumlaut" horiz-adv-x="600" unicode="ő"/><glyph d="M390 -11q-151 0 -258 105.5t-107 255.5t107 256t258 106q123 0 222 -75v63h402v-133h-260v-141h242v-134h-242v-158h268v-134h-410v64q-99 -75 -222 -75zM168 350q0 -91 65 -155t157 -64t157 64t65 155t-65 155t-157 64t-157 -64t-65 -155z" glyph-name="OE" horiz-adv-x="1072" unicode="Œ"/><glyph d="M300 -11q-111 0 -190.5 77.5t-79.5 187.5q0 109 79.5 187t190.5 78q65 0 123 -30t95 -80q38 51 94 80.5t120 29.5q117 0 196 -91.5t57 -224.5h-372q13 -41 46.5 -65.5t81.5 -24.5q78 0 119 53l111 -53q-70 -124 -230 -124q-66 0 -124.5 30t-97.5 81q-37 -51 -95 -81 t-124 -30zM168 254q0 -55 38.5 -93.5t93.5 -38.5t93.5 38.5t38.5 93.5q0 54 -38.5 92.5t-93.5 38.5t-93.5 -38.5t-38.5 -92.5zM616 310h233q-11 38 -41 61t-76 23q-41 0 -71.5 -23.5t-44.5 -60.5z" glyph-name="oe" horiz-adv-x="1019" unicode="œ"/><glyph d="M60 0v700h214q117 0 184.5 -64t67.5 -161q0 -59 -27 -108.5t-76 -80.5l172 -286h-168l-139 249h-86v-249h-142zM190 750l66 138h131l-87 -138h-110zM202 382h72q56 0 81.5 27t25.5 66q0 38 -26 65t-81 27h-72v-185z" glyph-name="Racute" horiz-adv-x="605" unicode="Ŕ"/><glyph d="M50 0v507h133v-66q55 77 155 77v-133q-78 0 -116.5 -39t-38.5 -148v-198h-133zM120 560l66 138h131l-87 -138h-110z" glyph-name="racute" horiz-adv-x="363" unicode="ŕ"/><glyph d="M60 0v700h214q117 0 184.5 -64t67.5 -161q0 -59 -27 -108.5t-76 -80.5l172 -286h-168l-139 249h-86v-249h-142zM181 -239l68 183h124l-93 -183h-99zM202 382h72q56 0 81.5 27t25.5 66q0 38 -26 65t-81 27h-72v-185z" glyph-name="uni0156" horiz-adv-x="605" unicode="Ŗ"/><glyph d="M50 0v507h133v-66q55 77 155 77v-133q-78 0 -116.5 -39t-38.5 -148v-198h-133zM-15 -239l68 183h124l-93 -183h-99z" glyph-name="uni0157" horiz-adv-x="363" unicode="ŗ"/><glyph d="M60 0v700h214q117 0 184.5 -64t67.5 -161q0 -59 -27 -108.5t-76 -80.5l172 -286h-168l-139 249h-86v-249h-142zM80 888h119l51 -64l52 64h118l-110 -138h-119zM202 382h72q56 0 81.5 27t25.5 66q0 38 -26 65t-81 27h-72v-185z" glyph-name="Rcaron" horiz-adv-x="605" unicode="Ř"/><glyph d="M50 0v507h133v-66q55 77 155 77v-133q-78 0 -116.5 -39t-38.5 -148v-198h-133zM17 698h119l51 -64l52 64h118l-110 -138h-119z" glyph-name="rcaron" horiz-adv-x="363" unicode="ř"/><glyph d="M268 -11q-65 0 -114.5 22.5t-74.5 56.5t-37 66.5t-12 59.5l142 13q1 -26 24.5 -52.5t71.5 -26.5q46 0 69 21t23 53t-30.5 50.5t-112.5 47.5q-84 30 -123 79t-39 128q0 87 59.5 146t146.5 59q88 0 145.5 -53.5t66.5 -125.5l-139 -18q-3 24 -20 42.5t-51 18.5 q-32 0 -49.5 -19.5t-17.5 -45.5q0 -29 19.5 -49t77.5 -39q95 -32 131 -56q87 -56 87 -162q0 -94 -68.5 -155t-174.5 -61zM208 750l66 138h131l-87 -138h-110z" glyph-name="Sacute" horiz-adv-x="541" unicode="Ś"/><glyph d="M240 -11q-85 0 -145 35.5t-70 109.5l136 21q2 -21 22.5 -36t56.5 -15q66 0 66 42q0 5 -1 8.5t-4 7t-6.5 6t-10 5t-12.5 4.5t-16 5t-18.5 5t-22.5 6t-26 7q-64 18 -104 54.5t-40 105.5q0 72 54.5 115t128.5 43q70 0 123.5 -34.5t66.5 -91.5l-128 -23q-3 12 -19 23t-40 11 q-23 0 -38 -11.5t-15 -28.5q0 -19 18.5 -28.5t75.5 -24.5q84 -24 114 -44q56 -38 56 -109q0 -83 -58.5 -125.5t-143.5 -42.5zM172 560l66 138h131l-87 -138h-110z" glyph-name="sacute" horiz-adv-x="467" unicode="ś"/><glyph d="M240 -11q-85 0 -145 35.5t-70 109.5l136 21q2 -21 22.5 -36t56.5 -15q66 0 66 42q0 5 -1 8.5t-4 7t-6.5 6t-10 5t-12.5 4.5t-16 5t-18.5 5t-22.5 6t-26 7q-64 18 -104 54.5t-40 105.5q0 72 54.5 115t128.5 43q70 0 123.5 -34.5t66.5 -91.5l-128 -23q-3 12 -19 23t-40 11 q-23 0 -38 -11.5t-15 -28.5q0 -19 18.5 -28.5t75.5 -24.5q84 -24 114 -44q56 -38 56 -109q0 -83 -58.5 -125.5t-143.5 -42.5zM59 560l111 138h119l111 -138h-119l-52 64l-51 -64h-119z" glyph-name="scircumflex" horiz-adv-x="467" unicode="ŝ"/><glyph d="M259 -309q-65 0 -117 34l42 91q40 -20 67 -20q51 0 51 41q0 16 -10.5 25.5t-29.5 9.5q-11 0 -35 -12l-56 48l44 85q-50 8 -88 32.5t-58 55.5t-29.5 59.5t-9.5 52.5l141 13q1 -25 25 -52t72 -27q46 0 69 21t23 53t-31 51.5t-112 47.5q-85 30 -123.5 78.5t-38.5 128.5 q0 86 59 145.5t146 59.5q88 0 146 -53.5t67 -126.5l-140 -17q-3 23 -19.5 41.5t-50.5 18.5q-32 0 -50 -20t-18 -45q0 -28 20 -48t78 -40q97 -32 135 -58q82 -55 82 -159q0 -89 -59.5 -148t-155.5 -67l-23 -44h10q48 0 88 -27.5t40 -86.5q0 -71 -42.5 -106t-108.5 -35z" glyph-name="Scedilla" horiz-adv-x="540" unicode="Ş"/><glyph d="M225 -309q-64 0 -116 34l42 91q40 -20 67 -20q50 0 50 41q0 35 -39 35q-17 0 -35 -12l-56 48l44 85q-64 10 -106 45t-51 96l137 20q3 -20 23 -35t56 -15q66 0 66 42q0 5 -1 8.5t-4 7t-6.5 6t-10 5t-12.5 4.5t-16 5t-18.5 5t-22.5 6t-26 7q-145 41 -145 160q0 72 55 115 t129 43q70 0 123 -35t66 -91l-127 -24q-3 13 -18.5 24t-40.5 11q-23 0 -38 -11.5t-15 -28.5q0 -20 18.5 -29.5t74.5 -24.5q26 -7 33 -9t31.5 -10t34 -14t27 -18.5t25 -25.5t14 -32.5t6.5 -42.5q0 -78 -51.5 -120t-129.5 -48l-23 -43h10q48 0 88 -27.5t40 -86.5 q0 -71 -42.5 -106t-109.5 -35z" glyph-name="scedilla" horiz-adv-x="468" unicode="ş"/><glyph d="M268 -11q-65 0 -114.5 22.5t-74.5 56.5t-37 66.5t-12 59.5l142 13q1 -26 24.5 -52.5t71.5 -26.5q46 0 69 21t23 53t-30.5 50.5t-112.5 47.5q-84 30 -123 79t-39 128q0 87 59.5 146t146.5 59q88 0 145.5 -53.5t66.5 -125.5l-139 -18q-3 24 -20 42.5t-51 18.5 q-32 0 -49.5 -19.5t-17.5 -45.5q0 -29 19.5 -49t77.5 -39q95 -32 131 -56q87 -56 87 -162q0 -94 -68.5 -155t-174.5 -61zM94 888h119l51 -64l52 64h118l-110 -138h-119z" glyph-name="Scaron" horiz-adv-x="541" unicode="Š"/><glyph d="M240 -11q-85 0 -145 35.5t-70 109.5l136 21q2 -21 22.5 -36t56.5 -15q66 0 66 42q0 5 -1 8.5t-4 7t-6.5 6t-10 5t-12.5 4.5t-16 5t-18.5 5t-22.5 6t-26 7q-64 18 -104 54.5t-40 105.5q0 72 54.5 115t128.5 43q70 0 123.5 -34.5t66.5 -91.5l-128 -23q-3 12 -19 23t-40 11 q-23 0 -38 -11.5t-15 -28.5q0 -19 18.5 -28.5t75.5 -24.5q84 -24 114 -44q56 -38 56 -109q0 -83 -58.5 -125.5t-143.5 -42.5zM59 698h119l51 -64l52 64h118l-110 -138h-119z" glyph-name="scaron" horiz-adv-x="467" unicode="š"/><glyph d="M283 -310q-62 0 -117 35l42 91q37 -21 67 -21q26 0 38.5 11.5t12.5 29.5q0 16 -11 26t-29 10q-11 0 -35 -12l-56 47l48 93h-34v566h-164v134h470v-134h-163v-566h-28l-28 -55l10 1q48 0 88 -27.5t40 -86.5q0 -72 -42.5 -107t-108.5 -35z" glyph-name="uni0162" horiz-adv-x="560" unicode="Ţ"/><glyph d="M234 -310q-63 0 -116 35l42 91q34 -21 66 -21q26 0 38.5 11.5t12.5 29.5q0 16 -11 26t-29 10q-16 0 -34 -12l-57 47l51 99q-93 38 -93 170v206h-84v124h84v113h134v-113h138v-124h-138v-206q0 -60 56 -60q27 0 46 25l81 -82q-60 -68 -141 -68q-2 0 -4.5 0.5t-3.5 0.5 l-25 -47q2 0 5.5 0.5t5.5 0.5q47 0 87 -27.5t40 -86.5q0 -72 -42.5 -107t-108.5 -35z" glyph-name="uni0163" horiz-adv-x="441" unicode="ţ"/><glyph d="M208 0v567h-163v133h470v-133h-164v-567h-143zM110 888h119l51 -64l52 64h118l-110 -138h-119z" glyph-name="Tcaron" horiz-adv-x="560" unicode="Ť"/><glyph d="M280 -9q-83 0 -129 45.5t-46 139.5v206h-85v124h85v113h133v-113h138v-124h-138v-206q0 -60 56 -60q27 0 46 25l81 -82q-58 -68 -141 -68zM334 561l69 183h123l-93 -183h-99z" glyph-name="tcaron" horiz-adv-x="441" unicode="ť"/><glyph d="M209 0v340h-115v124h115v103h-164v133h470v-133h-164v-103h115v-124h-115v-340h-142z" glyph-name="Tbar" horiz-adv-x="560" unicode="Ŧ"/><glyph d="M280 -8q-83 0 -129.5 45.5t-46.5 139.5v62h-62v98h62v45h-84v125h84v113h134v-113h137v-125h-137v-45h104v-98h-104v-62q0 -60 56 -60q27 0 46 24l81 -81q-60 -68 -141 -68z" glyph-name="tbar" horiz-adv-x="441" unicode="ŧ"/><glyph d="M283 -11q-113 0 -173 72t-60 184v262h134v-262q0 -51 30.5 -87t86.5 -36q59 0 89 40.5t30 101.5v243h133v-507h-133v43q-56 -54 -137 -54zM128 591q21 98 108 98q23 0 63.5 -20.5t59.5 -20.5q23 0 32 33l83 -22q-21 -100 -102 -100q-27 0 -68.5 20.5t-61.5 20.5 q-23 0 -31 -31z" glyph-name="utilde" unicode="ũ"/><glyph d="M350 -11q-138 0 -214 81.5t-76 221.5v408h142v-408q0 -75 38 -118t110 -43t110 43t38 118v408h142v-408q0 -140 -76 -221.5t-214 -81.5zM223 766v106h254v-106h-254z" glyph-name="Umacron" horiz-adv-x="700" unicode="Ū"/><glyph d="M283 -11q-113 0 -173 72t-60 184v262h134v-262q0 -51 30.5 -87t86.5 -36q59 0 89 40.5t30 101.5v243h133v-507h-133v43q-56 -54 -137 -54zM174 576v106h254v-106h-254z" glyph-name="umacron" unicode="ū"/><glyph d="M283 -11q-113 0 -173 72t-60 184v262h134v-262q0 -51 30.5 -87t86.5 -36q59 0 89 40.5t30 101.5v243h133v-507h-133v43q-56 -54 -137 -54zM133 711h116q0 -23 13.5 -37t38.5 -14t38.5 14t13.5 37h116q0 -74 -48 -111.5t-120 -37.5t-120 37.5t-48 111.5z" glyph-name="ubreve" unicode="ŭ"/><glyph d="M350 -11q-138 0 -214 81.5t-76 221.5v408h142v-408q0 -75 38 -118t110 -43t110 43t38 118v408h142v-408q0 -140 -76 -221.5t-214 -81.5zM234 855q0 48 34 82t82 34t82 -34t34 -82t-34 -82t-82 -34t-82 34t-34 82zM305 855q0 -19 13 -32t32 -13q18 0 31 13t13 32 q0 18 -13 31t-31 13q-19 0 -32 -13t-13 -31z" glyph-name="Uring" horiz-adv-x="700" unicode="Ů"/><glyph d="M283 -11q-113 0 -173 72t-60 184v262h134v-262q0 -51 30.5 -87t86.5 -36q59 0 89 40.5t30 101.5v243h133v-507h-133v43q-56 -54 -137 -54zM185 666q0 48 34 82t82 34t82 -34t34 -82t-34 -82t-82 -34t-82 34t-34 82zM256 666q0 -19 13 -32t32 -13q18 0 31 13t13 32 q0 18 -13 31t-31 13q-19 0 -32 -13t-13 -31z" glyph-name="uring" unicode="ů"/><glyph d="M350 -11q-138 0 -214 81.5t-76 221.5v408h142v-408q0 -75 38 -118t110 -43t110 43t38 118v408h142v-408q0 -140 -76 -221.5t-214 -81.5zM183 750l66 138h131l-86 -138h-111zM368 750l66 138h131l-86 -138h-111z" glyph-name="Uhungarumlaut" horiz-adv-x="700" unicode="Ű"/><glyph d="M283 -11q-113 0 -173 72t-60 184v262h134v-262q0 -51 30.5 -87t86.5 -36q59 0 89 40.5t30 101.5v243h133v-507h-133v43q-56 -54 -137 -54zM142 560l66 138h131l-86 -138h-111zM327 560l66 138h131l-86 -138h-111z" glyph-name="uhungarumlaut" unicode="ű"/><glyph d="M494 -287q-77 -21 -143 10.5t-66 111.5q0 84 88 154q-3 0 -10.5 -0.5t-11.5 -0.5q-138 0 -214.5 82t-76.5 222v408h143v-408q0 -75 38 -118t110 -43t110 43t38 118v408h142v-408q0 -201 -145 -273q-33 -22 -61.5 -59t-28.5 -71q0 -37 29 -49.5t59 -6.5v-120z" glyph-name="Uogonek" horiz-adv-x="701" unicode="Ų"/><glyph d="M561 -287q-35 -12 -71.5 -8t-67 16.5t-50 42.5t-19.5 71q0 93 103 165h-36v43q-55 -55 -137 -55q-113 0 -173 72t-60 184v263h134v-263q0 -50 30.5 -86t86.5 -36q59 0 89 40.5t30 101.5v243h133v-507q-80 -59 -80 -111q0 -37 29 -49.5t59 -6.5v-120z" glyph-name="uogonek" unicode="ų"/><glyph d="M250 0l-240 700h157l161 -508l154 508h115l155 -508l161 508h157l-240 -700h-150l-140 464l-141 -464h-149zM375 750l111 138h119l111 -138h-119l-52 64l-51 -64h-119z" glyph-name="Wcircumflex" horiz-adv-x="1080" unicode="Ŵ"/><glyph d="M201 0l-186 507h141l117 -320l106 320h113l105 -320l118 320h140l-186 -507h-132l-102 309l-102 -309h-132zM265 560l111 138h119l111 -138h-119l-52 64l-51 -64h-119z" glyph-name="wcircumflex" horiz-adv-x="870" unicode="ŵ"/><glyph d="M280 0v306l-265 394h163l173 -262l173 262h163l-265 -394v-306h-142zM181 750l111 138h119l111 -138h-119l-52 64l-51 -64h-119z" glyph-name="Ycircumflex" horiz-adv-x="702" unicode="Ŷ"/><glyph d="M125 -238l98 238l-208 507h142l135 -338l139 338h142l-305 -745h-143zM124 560l111 138h119l111 -138h-119l-52 64l-51 -64h-119z" glyph-name="ycircumflex" horiz-adv-x="588" unicode="ŷ"/><glyph d="M280 0v306l-265 394h163l173 -262l173 262h163l-265 -394v-306h-142zM186 832q0 27 19 46t46 19t46 -19t19 -46t-19 -46t-46 -19t-46 19t-19 46zM385 832q0 27 19.5 46t46.5 19t46 -19t19 -46t-19 -46t-46 -19t-46.5 19t-19.5 46z" glyph-name="Ydieresis" horiz-adv-x="702" unicode="Ÿ"/><glyph d="M40 0v125l314 442h-305v133h479v-124l-314 -442h341v-134h-515zM218 750l66 138h131l-87 -138h-110z" glyph-name="Zacute" horiz-adv-x="595" unicode="Ź"/><glyph d="M30 0v125l256 257h-238v125h410v-125l-257 -257h274v-125h-445zM197 560l66 138h131l-87 -138h-110z" glyph-name="zacute" horiz-adv-x="505" unicode="ź"/><glyph d="M40 0v125l314 442h-305v133h479v-124l-314 -442h341v-134h-515zM230 832q0 27 19.5 46t46.5 19t46 -19t19 -46t-19 -46t-46 -19t-46.5 19t-19.5 46z" glyph-name="Zdotaccent" horiz-adv-x="595" unicode="Ż"/><glyph d="M30 0v125l256 257h-238v125h410v-125l-257 -257h274v-125h-445zM194 632q0 27 19.5 46t46.5 19t46 -19t19 -46t-19 -46t-46 -19t-46.5 19t-19.5 46z" glyph-name="zdotaccent" horiz-adv-x="505" unicode="ż"/><glyph d="M40 0v125l314 442h-305v133h479v-124l-314 -442h341v-134h-515zM121 888h119l51 -64l52 64h118l-110 -138h-119z" glyph-name="Zcaron" horiz-adv-x="595" unicode="Ž"/><glyph d="M30 0v125l256 257h-238v125h410v-125l-257 -257h274v-125h-445zM85 698h119l51 -64l52 64h118l-110 -138h-119z" glyph-name="zcaron" horiz-adv-x="505" unicode="ž"/><glyph d="M308 -238q-83 0 -152.5 34t-101.5 95l123 60q37 -55 131 -55q61 0 96.5 33.5t35.5 90.5v25q-67 -56 -158 -56q-107 0 -179.5 77t-72.5 188q0 110 72.5 187t179.5 77q91 0 158 -56v45h133v-487q0 -119 -74 -188.5t-191 -69.5zM120 698h119l51 -64l52 64h118l-110 -138 h-119zM168 254q0 -55 38.5 -93.5t93.5 -38.5t93.5 38.5t38.5 93.5q0 54 -38.5 92.5t-93.5 38.5t-93.5 -38.5t-38.5 -92.5z" glyph-name="gcaron" horiz-adv-x="623" unicode="ǧ"/><glyph d="M268 -11q-65 0 -114.5 22.5t-74.5 56.5t-37 66.5t-12 59.5l142 13q1 -26 24.5 -52.5t71.5 -26.5q46 0 69 21t23 53t-30.5 50.5t-112.5 47.5q-84 30 -123 79t-39 128q0 87 59.5 146t146.5 59q88 0 145.5 -53.5t66.5 -125.5l-139 -18q-3 24 -20 42.5t-51 18.5 q-32 0 -49.5 -19.5t-17.5 -45.5q0 -29 19.5 -49t77.5 -39q95 -32 131 -56q87 -56 87 -162q0 -94 -68.5 -155t-174.5 -61zM139 -239l68 183h124l-93 -183h-99z" glyph-name="uni0218" horiz-adv-x="541" unicode="Ș"/><glyph d="M240 -11q-85 0 -145 35.5t-70 109.5l136 21q2 -21 22.5 -36t56.5 -15q66 0 66 42q0 5 -1 8.5t-4 7t-6.5 6t-10 5t-12.5 4.5t-16 5t-18.5 5t-22.5 6t-26 7q-64 18 -104 54.5t-40 105.5q0 72 54.5 115t128.5 43q70 0 123.5 -34.5t66.5 -91.5l-128 -23q-3 12 -19 23t-40 11 q-23 0 -38 -11.5t-15 -28.5q0 -19 18.5 -28.5t75.5 -24.5q84 -24 114 -44q56 -38 56 -109q0 -83 -58.5 -125.5t-143.5 -42.5zM100 -239l68 183h124l-93 -183h-99z" glyph-name="uni0219" horiz-adv-x="467" unicode="ș"/><glyph d="M208 0v567h-163v133h470v-133h-164v-567h-143zM147 -239l68 183h124l-93 -183h-99z" glyph-name="uni021A" horiz-adv-x="560" unicode="Ț"/><glyph d="M280 -8q-83 0 -129.5 45.5t-46.5 139.5v205h-84v125h84v113h134v-113h138v-125h-138v-205q0 -60 56 -60q25 0 46 24l81 -81q-60 -68 -141 -68zM120 -239l68 183h124l-93 -183h-99z" glyph-name="uni021B" horiz-adv-x="441" unicode="ț"/><glyph d="M-15 -104q81 5 81 82v529h134v-529q0 -216 -215 -216v134z" glyph-name="uni0237" horiz-adv-x="250" unicode="ȷ"/><glyph d="M157 750l-87 138h132l65 -138h-110z" glyph-name="gravecomb" horiz-adv-x="0" unicode="̀"/><glyph d="M70 750l66 138h131l-87 -138h-110z" glyph-name="acutecomb" horiz-adv-x="0" unicode="́"/><glyph d="M70 750l111 138h119l111 -138h-119l-52 64l-51 -64h-119z" glyph-name="uni0302" horiz-adv-x="0" unicode="̂"/><glyph d="M314 742q-27 0 -68.5 20.5t-61.5 20.5q-23 0 -31 -31l-83 22q21 98 108 98q23 0 63.5 -20.5t59.5 -20.5q23 0 32 33l83 -22q-21 -100 -102 -100z" glyph-name="tildecomb" horiz-adv-x="0" unicode="̃"/><glyph d="M70 766v106h254v-106h-254z" glyph-name="uni0304" horiz-adv-x="0" unicode="̄"/><glyph d="M238 742q-72 0 -120 37.5t-48 111.5h116q0 -23 13.5 -37t38.5 -14t38.5 14t13.5 37h116q0 -74 -48 -111.5t-120 -37.5z" glyph-name="uni0306" horiz-adv-x="0" unicode="̆"/><glyph d="M136 767q-27 0 -46.5 19t-19.5 46t19.5 46t46.5 19t46 -19t19 -46t-19 -46t-46 -19z" glyph-name="uni0307" horiz-adv-x="0" unicode="̇"/><glyph d="M335 767q-27 0 -46.5 19t-19.5 46t19.5 46t46.5 19t46 -19t19 -46t-19 -46t-46 -19zM70 832q0 27 19 46t46 19t46 -19t19 -46t-19 -46t-46 -19t-46 19t-19 46z" glyph-name="uni0308" horiz-adv-x="0" unicode="̈"/><glyph d="M186 739q-48 0 -82 34t-34 82t34 82t82 34t82 -34t34 -82t-34 -82t-82 -34zM141 855q0 -19 13 -32t32 -13q18 0 31 13t13 32q0 18 -13 31t-31 13q-19 0 -32 -13t-13 -31z" glyph-name="uni030A" horiz-adv-x="0" unicode="̊"/><glyph d="M255 750l66 138h131l-86 -138h-111zM70 750l66 138h131l-86 -138h-111z" glyph-name="uni030B" horiz-adv-x="0" unicode="̋"/><glyph d="M181 750l-111 138h119l51 -64l52 64h118l-110 -138h-119z" glyph-name="uni030C" horiz-adv-x="0" unicode="̌"/><glyph d="M70 -239l68 183h124l-93 -183h-99z" glyph-name="uni0326" horiz-adv-x="0" unicode="̦"/><glyph d="M186 -310q-63 0 -116 35l42 91q40 -20 66 -20q51 0 51 41q0 16 -10.5 25.5t-29.5 9.5q-16 0 -34 -12l-57 48l48 92h82l-29 -54h11q48 0 88 -27.5t40 -86.5q0 -71 -43 -106.5t-109 -35.5z" glyph-name="uni0327" horiz-adv-x="0" unicode="̧"/><glyph d="M278 -287q-34 -12 -71 -8t-67.5 16.5t-50 42.5t-19.5 71q0 92 102 165h98q-80 -59 -80 -111q0 -37 29 -49.5t59 -6.5v-120z" glyph-name="uni0328" horiz-adv-x="0" unicode="̨"/><glyph d="M250 0l-240 700h157l161 -508l154 508h115l155 -508l161 508h157l-240 -700h-150l-140 464l-141 -464h-149zM399 888h132l65 -138h-110z" glyph-name="Wgrave" horiz-adv-x="1080" unicode="Ẁ"/><glyph d="M201 0l-186 507h141l117 -320l106 320h113l105 -320l118 320h140l-186 -507h-132l-102 309l-102 -309h-132zM291 698h132l65 -138h-110z" glyph-name="wgrave" horiz-adv-x="870" unicode="ẁ"/><glyph d="M250 0l-240 700h157l161 -508l154 508h115l155 -508l161 508h157l-240 -700h-150l-140 464l-141 -464h-149zM494 750l66 138h131l-87 -138h-110z" glyph-name="Wacute" horiz-adv-x="1080" unicode="Ẃ"/><glyph d="M201 0l-186 507h141l117 -320l106 320h113l105 -320l118 320h140l-186 -507h-132l-102 309l-102 -309h-132zM386 560l66 138h131l-87 -138h-110z" glyph-name="wacute" horiz-adv-x="870" unicode="ẃ"/><glyph d="M250 0l-240 700h157l161 -508l154 508h115l155 -508l161 508h157l-240 -700h-150l-140 464l-141 -464h-149zM380 832q0 27 19 46t46 19t46 -19t19 -46t-19 -46t-46 -19t-46 19t-19 46zM579 832q0 27 19.5 46t46.5 19t46 -19t19 -46t-19 -46t-46 -19t-46.5 19t-19.5 46z " glyph-name="Wdieresis" horiz-adv-x="1080" unicode="Ẅ"/><glyph d="M201 0l-186 507h141l117 -320l106 320h113l105 -320l118 320h140l-186 -507h-132l-102 309l-102 -309h-132zM270 632q0 27 19 46t46 19t46 -19t19 -46t-19 -46t-46 -19t-46 19t-19 46zM469 632q0 27 19.5 46t46.5 19t46 -19t19 -46t-19 -46t-46 -19t-46.5 19t-19.5 46z " glyph-name="wdieresis" horiz-adv-x="870" unicode="ẅ"/><glyph d="M60 449q0 123 71.5 187t179.5 64h231v-134h-1l-95 -164q141 -41 141 -185q0 -99 -65 -158t-163 -59h-49v130h40q41 0 68 28t27 68q0 39 -26.5 63t-68.5 24h-40v106l86 147h-85q-108 0 -108 -117v-449h-143v449z" glyph-name="uni1E9E" horiz-adv-x="627" unicode="ẞ"/><glyph d="M303 -11q-110 0 -191.5 78t-81.5 187t78 186.5t186 77.5q117 0 196 -91t57 -224h-372q14 -42 47 -66t81 -24q78 0 119 53l111 -53q-70 -124 -230 -124zM117 591q21 98 108 98q23 0 63.5 -20.5t59.5 -20.5q23 0 32 33l83 -22q-21 -100 -102 -100q-27 0 -68.5 20.5 t-61.5 20.5q-23 0 -31 -31zM178 310h234q-12 38 -42 61t-76 23q-41 0 -71.5 -23.5t-44.5 -60.5z" glyph-name="uni1EBD" horiz-adv-x="581" unicode="ẽ"/><glyph d="M280 0v306l-265 394h163l173 -262l173 262h163l-265 -394v-306h-142zM220 888h132l65 -138h-110z" glyph-name="Ygrave" horiz-adv-x="702" unicode="Ỳ"/><glyph d="M125 -238l98 238l-208 507h142l135 -338l139 338h142l-305 -745h-143zM157 698h132l65 -138h-110z" glyph-name="ygrave" horiz-adv-x="588" unicode="ỳ"/><glyph d="M125 -238l98 238l-208 507h142l135 -338l139 338h142l-305 -745h-143zM121 591q21 98 108 98q23 0 63.5 -20.5t59.5 -20.5q23 0 32 33l83 -22q-21 -100 -102 -100q-27 0 -68.5 20.5t-61.5 20.5q-23 0 -31 -31z" glyph-name="uni1EF9" horiz-adv-x="588" unicode="ỹ"/><glyph d="M80 231v134h483v-134h-483z" glyph-name="endash" horiz-adv-x="643" unicode="–"/><glyph d="M80 231v134h571v-134h-571z" glyph-name="emdash" horiz-adv-x="731" unicode="—"/><glyph d="M50 517l93 183h99l-69 -183h-123z" glyph-name="quoteleft" horiz-adv-x="282" unicode="‘"/><glyph d="M40 517l69 183h124l-94 -183h-99z" glyph-name="quoteright" horiz-adv-x="283" unicode="’"/><glyph d="M-10 -127l68 183h124l-93 -183h-99z" glyph-name="quotesinglbase" horiz-adv-x="222" unicode="‚"/><glyph d="M50 517l93 183h100l-69 -183h-124zM219 517l93 183h99l-69 -183h-123z" glyph-name="quotedblleft" horiz-adv-x="451" unicode="“"/><glyph d="M208 517l69 183h124l-94 -183h-99zM40 517l68 183h124l-93 -183h-99z" glyph-name="quotedblright" horiz-adv-x="451" unicode="”"/><glyph d="M-10 -127l69 183h124l-94 -183h-99zM159 -127l68 183h124l-93 -183h-99z" glyph-name="quotedblbase" horiz-adv-x="391" unicode="„"/><glyph d="M185 0v410h-130v134h130v156h134v-156h130v-134h-130v-410h-134z" glyph-name="dagger" horiz-adv-x="504" unicode="†"/><glyph d="M185 0v157h-130v134h130v119h-130v134h130v156h134v-156h130v-134h-130v-119h130v-134h-130v-157h-134z" glyph-name="daggerdbl" horiz-adv-x="504" unicode="‡"/><glyph d="M174 140q-47 0 -80.5 33.5t-33.5 80.5t33.5 80t80.5 33t80 -33t33 -80t-33 -80.5t-80 -33.5z" glyph-name="bullet" horiz-adv-x="347" unicode="•"/><glyph d="M139 0l480 700h90l-480 -700h-90zM60 536q0 68 48 115.5t115 47.5q68 0 116 -47.5t48 -115.5t-48 -115.5t-116 -47.5q-67 0 -115 47.5t-48 115.5zM149 536q0 -31 21.5 -52.5t52.5 -21.5t53 21.5t22 52.5t-22 52.5t-53 21.5t-52.5 -21.5t-21.5 -52.5zM461 163q0 67 48 115 t116 48q67 0 115 -48t48 -115t-48 -115t-115 -48q-68 0 -116 48t-48 115zM550 163q0 -31 22 -52.5t53 -21.5t52.5 21.5t21.5 52.5t-21.5 52.5t-52.5 21.5t-53 -21.5t-22 -52.5zM844 163q0 67 48 115t115 48t115 -48t48 -115t-48 -115t-115 -48t-115 48t-48 115zM933 163 q0 -31 21.5 -52.5t52.5 -21.5t52.5 21.5t21.5 52.5t-21.5 52.5t-52.5 21.5t-52.5 -21.5t-21.5 -52.5z" glyph-name="perthousand" horiz-adv-x="1230" unicode="‰"/><glyph d="M189 106l-139 192l139 192h145l-139 -192l139 -192h-145z" glyph-name="guilsinglleft" horiz-adv-x="384" unicode="‹"/><glyph d="M50 106l139 192l-139 192h145l139 -192l-139 -192h-145z" glyph-name="guilsinglright" horiz-adv-x="384" unicode="›"/><glyph d="M456 -12q-124 0 -221 74.5t-130 190.5h-95v71h83q-1 9 -1 26q0 16 1 25h-83v71h95q33 116 130 190.5t221 74.5q88 0 165 -39t128 -107l-113 -86q-32 42 -79 66t-101 24q-64 0 -118 -33.5t-81 -89.5h307v-71h-328q-2 -18 -2 -25q0 -8 2 -26h328v-71h-307q27 -56 81 -89.5 t118 -33.5q58 0 107.5 27.5t80.5 74.5l113 -86q-50 -73 -129.5 -115.5t-171.5 -42.5z" glyph-name="Euro" horiz-adv-x="797" unicode="€"/><glyph d="M100 0v114h-78v80h78v45h-80v134h80v327h223q117 0 186 -65t69 -166t-68.5 -165.5t-186.5 -64.5h-80v-45h217v-80h-217v-114h-143zM243 373h80q57 0 83.5 26.5t26.5 69.5t-26.5 70t-83.5 27h-80v-193z" glyph-name="uni20BD" horiz-adv-x="618" unicode="₽"/><glyph d="M131 -123v123h-71v700h71v122h89v-122h47q2 0 6 -0.5t6 -0.5v123h89v-137q64 -21 99.5 -68t35.5 -112q0 -85 -60 -134q89 -53 89 -163q0 -75 -44 -127.5t-120 -71.5v-132h-89v123h-59v-123h-89zM202 133h87q48 0 73 23t25 60q0 38 -25 61t-73 23h-87v-167zM202 426h65 q92 0 92 70t-92 70h-65v-140z" glyph-name="uni20BF" horiz-adv-x="572" unicode="₿"/><glyph d="M60 0v700h163l299 -474v474h142v-700h-163l-298 473v-473h-143zM751 479q0 71 49.5 120.5t120.5 49.5t121 -49.5t50 -120.5t-50 -121t-121 -50t-120.5 50t-49.5 121zM758 146v98h327v-98h-327zM849 479q0 -31 21 -52t51 -21q31 0 52 21t21 52q0 30 -21 51t-52 21 q-30 0 -51 -21t-21 -51z" glyph-name="uni2116" horiz-adv-x="1132" unicode="№"/><glyph d="M80 231v134h393v-134h-393z" glyph-name="minus" horiz-adv-x="553" unicode="−"/><glyph d="M433 288q-21 0 -38.5 3.5t-35 12t-25.5 13t-26.5 17.5t-20.5 15t-11 8l-12 8t-10 6.5t-11.5 6t-11 3t-13.5 1.5q-21 0 -34 -14.5t-23 -48.5l-111 34q41 154 151 154q20 0 37 -3t34.5 -12t24.5 -13t25 -18l19 -14q1 0 8.5 -6t8.5 -6.5t8 -5.5t9 -6t8 -3.5t10 -3.5t9.5 -2 t10.5 -1q37 0 51 56l120 -32q-39 -149 -151 -149zM50 148q41 154 151 154q20 0 37 -3t34.5 -12t24.5 -13t25 -18l19 -14q45 -35 75 -35q43 0 57 57l111 -32q-39 -149 -151 -149q-21 0 -38.5 3.5t-35 12t-25.5 13t-26.5 17.5t-20.5 15q-4 3 -13 9.5t-13.5 9.5t-11.5 7 t-13.5 5.5t-14.5 1.5q-33 0 -51 -64z" glyph-name="approxequal" horiz-adv-x="634" unicode="≈"/><glyph d="M100 43l44 82h-74v134h144l42 79h-186v133h257l43 82h100l-44 -82h73v-133h-143l-42 -79h185v-134h-256l-43 -82h-100z" glyph-name="notequal" horiz-adv-x="569" unicode="≠"/><glyph d="M446 151l-376 139v122l376 140v-125l-225 -75l225 -77v-124zM70 0v125h376v-125h-376z" glyph-name="lessequal" horiz-adv-x="516" unicode="≤"/><glyph d="M70 151v124l225 77l-225 75v125l376 -140v-122zM70 0v125h376v-125h-376z" glyph-name="greaterequal" horiz-adv-x="516" unicode="≥"/><glyph d="M265 131q59 0 96.5 23t37.5 73q0 87 -134 87v116h6q41 0 64 21.5t23 54.5q0 30 -22.5 51t-61.5 21q-42 0 -66.5 -30t-24.5 -80v-468h-133v468q0 121 65 182.5t157 61.5q88 0 150.5 -54.5t62.5 -144.5q0 -80 -62 -127q118 -56 118 -177q0 -108 -78 -166t-198 -55v143z" glyph-name="uniE000" horiz-adv-x="571" unicode=""/><glyph d="M221 -11q-85 0 -138 43.5t-63 107.5l138 37q3 -16 17.5 -31t42.5 -15q60 0 60 83v486h143v-486q0 -225 -200 -225zM296 750l66 138h131l-87 -138h-110z" glyph-name="J.aalt" horiz-adv-x="481"/><glyph d="M56 0v507h133v-507h-133zM57 632q0 27 19.5 46t46.5 19t46 -19t19 -46t-19 -46t-46 -19t-46.5 19t-19.5 46z" glyph-name="i.aalt" horiz-adv-x="245"/><glyph d="M-15 -104q81 5 81 82v529h134v-529q0 -216 -215 -216v134zM80 560l66 138h131l-87 -138h-110z" glyph-name="j.aalt" horiz-adv-x="250"/></font>
</defs>
</svg>
