<svg width="200" height="200" viewBox="0 0 200 200" fill="none" xmlns="http://www.w3.org/2000/svg">
<path fill-rule="evenodd" clip-rule="evenodd" d="M0 99.8536C0 44.8023 44.8024 0 99.8536 0C155.198 0 200 44.8023 200 99.8536C200 155.198 155.198 200 99.8536 200C44.8024 200 0 155.198 0 99.8536ZM71.8645 91.064C78.7945 91.064 84.4123 85.458 84.4123 78.5427C84.4123 71.6274 78.7945 66.0213 71.8645 66.0213C64.9346 66.0213 59.3167 71.6274 59.3167 78.5427C59.3167 85.458 64.9346 91.064 71.8645 91.064ZM141.448 78.5427C141.448 85.458 135.83 91.064 128.9 91.064C121.97 91.064 116.352 85.458 116.352 78.5427C116.352 71.6274 121.97 66.0213 128.9 66.0213C135.83 66.0213 141.448 71.6274 141.448 78.5427ZM85.2914 134.389C90.0758 132.412 95.2036 131.394 100.382 131.394C105.561 131.394 110.689 132.412 115.473 134.389C120.257 136.367 124.605 139.265 128.266 142.92C131.703 146.349 137.275 146.349 140.712 142.92C144.149 139.49 144.149 133.93 140.712 130.5C135.416 125.215 129.128 121.023 122.209 118.162C115.289 115.302 107.872 113.83 100.382 113.83C92.8922 113.83 85.4756 115.302 78.5557 118.162C71.6359 121.023 65.3483 125.215 60.0521 130.5C56.6153 133.93 56.6153 139.49 60.0521 142.92C63.4889 146.349 69.0611 146.349 72.498 142.92C76.1598 139.265 80.507 136.367 85.2914 134.389Z" fill="white"/>
</svg>
