<svg width="1920" height="1209" viewBox="0 0 1920 1209" fill="none" xmlns="http://www.w3.org/2000/svg">
<g clip-path="url(#clip0_307_671)">
<circle cx="173.999" cy="351.805" r="83.9994" fill="#FF507C"/>
<circle cx="1125.57" cy="1084" r="27.9998" fill="#F96D29"/>
<circle cx="1782.72" cy="98.1576" r="47.1576" fill="#C63DC6"/>
<circle opacity="0.25" cx="960" cy="604.5" r="603.492" stroke="#FFA50E" stroke-width="2.015"/>
<g opacity="0.2" filter="url(#filter0_d_307_671)">
<path fill-rule="evenodd" clip-rule="evenodd" d="M959.7 241C1160.01 241 1322.4 403.386 1322.4 603.7C1322.4 804.014 1160.01 966.4 959.7 966.4C759.386 966.4 597 804.014 597 603.7C597 403.386 759.386 241 959.7 241ZM960 757C1044.5 757 1113 688.5 1113 604C1113 519.5 1044.5 451 960 451C875.5 451 807 519.5 807 604C807 688.5 875.5 757 960 757Z" fill="#FFA50E"/>
<path d="M1323.41 603.7C1323.41 402.83 1160.57 239.992 959.7 239.992V242.008C1159.46 242.008 1321.39 403.943 1321.39 603.7H1323.41ZM959.7 967.407C1160.57 967.407 1323.41 804.57 1323.41 603.7H1321.39C1321.39 803.457 1159.46 965.392 959.7 965.392V967.407ZM595.992 603.7C595.992 804.57 758.83 967.407 959.7 967.407V965.392C759.943 965.392 598.008 803.457 598.008 603.7H595.992ZM959.7 239.992C758.83 239.992 595.992 402.83 595.992 603.7H598.008C598.008 403.943 759.943 242.008 959.7 242.008V239.992ZM1111.99 604C1111.99 687.943 1043.94 755.993 960 755.993V758.008C1045.06 758.008 1114.01 689.056 1114.01 604H1111.99ZM960 452.008C1043.94 452.008 1111.99 520.057 1111.99 604H1114.01C1114.01 518.944 1045.06 449.993 960 449.993V452.008ZM808.008 604C808.008 520.057 876.057 452.008 960 452.008V449.993C874.944 449.993 805.992 518.944 805.992 604H808.008ZM960 755.993C876.057 755.993 808.008 687.943 808.008 604H805.992C805.992 689.056 874.944 758.008 960 758.008V755.993Z" fill="#FFA50E"/>
</g>
<path fill-rule="evenodd" clip-rule="evenodd" d="M1113.09 604.5C1113.09 689.05 1044.55 757.592 960 757.592C875.45 757.592 806.908 689.05 806.908 604.5C806.908 519.95 875.45 451.409 960 451.409C1044.55 451.409 1113.09 519.95 1113.09 604.5ZM960.127 664.31C968.266 664.311 976.319 662.659 983.8 659.453C991.28 656.248 998.032 651.556 1003.64 645.663C1008.45 640.615 1016.44 640.42 1021.49 645.227C1026.53 650.034 1026.73 658.023 1021.92 663.07C1013.95 671.439 1004.36 678.102 993.742 682.654C983.119 687.206 971.682 689.553 960.124 689.551C948.567 689.55 937.131 687.201 926.509 682.646C915.887 678.091 906.301 671.427 898.332 663.056C893.527 658.007 893.724 650.019 898.772 645.213C903.821 640.407 911.809 640.604 916.615 645.653C922.226 651.547 928.976 656.241 936.456 659.448C943.936 662.655 951.989 664.309 960.127 664.31ZM997.976 546.764C999.862 541.338 1007.53 541.338 1009.42 546.764L1012.29 555.004C1013.12 557.397 1015.35 559.02 1017.88 559.072L1026.61 559.25C1032.35 559.367 1034.72 566.664 1030.14 570.135L1023.19 575.405C1021.17 576.936 1020.32 579.562 1021.05 581.988L1023.58 590.338C1025.24 595.836 1019.03 600.346 1014.32 597.065L1007.16 592.082C1005.08 590.635 1002.32 590.635 1000.24 592.082L993.077 597.065C988.362 600.346 982.154 595.836 983.817 590.338L986.344 581.988C987.077 579.562 986.224 576.936 984.205 575.405L977.253 570.135C972.676 566.664 975.047 559.367 980.79 559.25L989.512 559.072C992.045 559.02 994.279 557.397 995.111 555.004L997.976 546.764ZM922.385 546.764C920.499 541.338 912.826 541.338 910.94 546.764L908.075 555.004C907.243 557.397 905.01 559.02 902.476 559.072L893.754 559.25C888.011 559.367 885.64 566.664 890.217 570.135L897.169 575.405C899.188 576.936 900.042 579.562 899.308 581.988L896.782 590.338C895.118 595.836 901.326 600.346 906.041 597.065L913.202 592.082C915.282 590.635 918.043 590.635 920.123 592.082L927.284 597.065C931.999 600.346 938.207 595.836 936.543 590.338L934.017 581.988C933.283 579.562 934.136 576.936 936.156 575.405L943.107 570.135C947.685 566.664 945.314 559.367 939.571 559.25L930.849 559.072C928.315 559.02 926.081 557.397 925.249 555.004L922.385 546.764Z" fill="#FFA50E"/>
</g>
<defs>
<filter id="filter0_d_307_671" x="338.072" y="46.5524" width="1243.26" height="1243.26" filterUnits="userSpaceOnUse" color-interpolation-filters="sRGB">
<feFlood flood-opacity="0" result="BackgroundImageFix"/>
<feColorMatrix in="SourceAlpha" type="matrix" values="0 0 0 0 0 0 0 0 0 0 0 0 0 0 0 0 0 0 127 0" result="hardAlpha"/>
<feOffset dy="64.48"/>
<feGaussianBlur stdDeviation="128.96"/>
<feComposite in2="hardAlpha" operator="out"/>
<feColorMatrix type="matrix" values="0 0 0 0 0.027451 0 0 0 0 0.403922 0 0 0 0 0.992157 0 0 0 0.35 0"/>
<feBlend mode="multiply" in2="BackgroundImageFix" result="effect1_dropShadow_307_671"/>
<feBlend mode="normal" in="SourceGraphic" in2="effect1_dropShadow_307_671" result="shape"/>
</filter>
<clipPath id="clip0_307_671">
<rect width="1920" height="1209" fill="white"/>
</clipPath>
</defs>
</svg>
