<svg width="181" height="180" viewBox="0 0 181 180" fill="none" xmlns="http://www.w3.org/2000/svg">
<path fill-rule="evenodd" clip-rule="evenodd" d="M180.824 90C180.824 139.706 140.529 180 90.8237 180C41.1181 180 0.82373 139.706 0.82373 90C0.82373 40.2944 41.1181 0 90.8237 0C140.529 0 180.824 40.2944 180.824 90ZM65.2403 82.7951C71.4788 82.7951 76.5361 77.7378 76.5361 71.4993C76.5361 65.2608 71.4788 60.2035 65.2403 60.2035C59.0018 60.2035 53.9445 65.2608 53.9445 71.4993C53.9445 77.7378 59.0018 82.7951 65.2403 82.7951ZM127.819 71.4993C127.819 77.7378 122.762 82.7951 116.524 82.7951C110.285 82.7951 105.228 77.7378 105.228 71.4993C105.228 65.2608 110.285 60.2035 116.524 60.2035C122.762 60.2035 127.819 65.2608 127.819 71.4993ZM90.8237 139.946C102.154 139.946 111.339 130.761 111.339 119.43C111.339 108.1 102.154 98.9145 90.8237 98.9145C79.4933 98.9145 70.3081 108.1 70.3081 119.43C70.3081 130.761 79.4933 139.946 90.8237 139.946Z" fill="#9A9FA5"/>
</svg>
