<svg width="327" height="61" viewBox="0 0 327 61" fill="none" xmlns="http://www.w3.org/2000/svg">
<path d="M28.0164 37.9068C35.1191 34.5852 39.6175 27.3883 39.4597 19.5588C39.2229 8.6449 30.0683 0.0244984 19.1774 0.0244984H5.91895C2.60434 0.0244984 0 2.71343 0 5.95597V48.188C0 51.5097 2.60434 54.1986 5.91895 54.1986H5.99787C9.31249 54.1986 11.9957 51.5097 11.9957 48.188V39.8049H14.3633L28.5688 58.6274C29.6737 60.1301 31.4099 61 33.304 61H33.4618C35.6716 61 37.7235 59.6555 38.7494 57.6784C39.7754 55.6221 39.5386 53.2495 38.197 51.4306L28.0164 37.9068ZM19.6509 27.7047H11.9957V12.0456H19.6509C23.9126 12.0456 27.464 15.5254 27.464 19.8751C27.464 24.2249 23.9126 27.7047 19.6509 27.7047Z" fill="#FCFCFC"/>
<path d="M83.1064 12.0456C86.4211 12.0456 89.1043 9.35667 89.1043 6.03505V5.95597C89.1043 2.71343 86.4211 0.0244984 83.1064 0.0244984H61.2457C57.9311 0.0244984 55.3268 2.71343 55.3268 5.95597V48.188C55.3268 51.5097 57.9311 54.1986 61.2457 54.1986H83.1064C86.4211 54.1986 89.1043 51.5097 89.1043 48.188V48.1089C89.1043 44.7873 86.4211 42.0984 83.1064 42.0984H71.8305C69.3408 42.0984 67.3225 40.0801 67.3225 37.5905C67.3225 35.1008 69.3408 33.0825 71.8305 33.0825H76.3983C79.634 33.0825 82.3172 30.4727 82.3172 27.1511V27.072C82.3172 23.7504 79.634 21.0614 76.3983 21.0614H71.8305C69.3408 21.0614 67.3225 19.0432 67.3225 16.5535C67.3225 14.0639 69.3408 12.0456 71.8305 12.0456H83.1064Z" fill="#FCFCFC"/>
<path d="M142.184 40.5167L142.105 40.4376C140.211 38.6977 137.291 38.3813 135.082 39.8049C128.847 43.601 120.718 42.3356 115.983 36.7996C111.169 31.1845 111.09 23.0386 115.825 17.4235C120.482 11.8083 128.61 10.3848 134.845 14.1018C137.134 15.5254 140.054 15.2881 142.027 13.4692L142.105 13.3901C143.526 12.1247 144.236 10.3057 144.078 8.48673C143.921 6.58866 142.895 4.92784 141.316 3.97881C129.952 -2.98078 115.273 -0.608192 106.75 9.51485C98.1474 19.6379 98.1474 34.5061 106.828 44.6291C115.431 54.6731 130.11 56.9666 141.395 50.007C142.974 48.9789 144 47.3181 144.157 45.42C144.315 43.601 143.605 41.782 142.184 40.5167Z" fill="#FCFCFC"/>
<path d="M181.456 0.0244984C166.619 0.0244984 154.545 12.1247 154.545 26.9929C154.545 41.9402 166.619 54.0404 181.456 54.0404C196.372 54.0404 208.447 41.9402 208.447 26.9929C208.447 12.1247 196.372 0.0244984 181.456 0.0244984ZM181.456 42.0193C173.249 42.0193 166.541 35.297 166.541 26.9929C166.541 18.7679 173.249 12.0456 181.456 12.0456C189.743 12.0456 196.451 18.7679 196.451 26.9929C196.451 35.297 189.743 42.0193 181.456 42.0193Z" fill="#FCFCFC"/>
<path d="M261.28 19.2425C260.965 8.48673 251.81 0.0244984 240.998 0.0244984H227.739C224.425 0.0244984 221.821 2.71343 221.821 5.95597V54.9894C221.821 58.3111 224.425 60.9209 227.739 60.9209H227.818C231.133 60.9209 233.816 58.3111 233.816 54.9894V39.8049H241.471C246.759 39.7258 251.968 37.5905 255.677 33.7152C259.386 29.84 261.438 24.6203 261.28 19.2425ZM241.393 27.7047H233.816V12.0456H241.393C245.733 12.0456 249.284 15.5254 249.284 19.8751C249.284 24.2249 245.733 27.7047 241.393 27.7047Z" fill="#FCFCFC"/>
<path d="M299.072 0.0244984C284.235 0.0244984 272.16 12.1247 272.16 26.9929C272.16 41.9402 284.235 54.0404 299.072 54.0404C313.987 54.0404 326.062 41.9402 326.062 26.9929C326.062 12.1247 313.987 0.0244984 299.072 0.0244984ZM299.072 42.0193C290.864 42.0193 284.156 35.297 284.156 26.9929C284.156 18.7679 290.864 12.0456 299.072 12.0456C307.358 12.0456 314.066 18.7679 314.066 26.9929C314.066 35.297 307.358 42.0193 299.072 42.0193Z" fill="#FCFCFC"/>
</svg>
