<?xml version="1.0" encoding="UTF-8"?>
<svg xmlns="http://www.w3.org/2000/svg" version="1.1" width="500" height="500" viewBox="0 0 500 500"><rect x="0" y="0" width="500" height="500" fill="#ffffff"/><g transform="scale(17.241)"><g transform="translate(0,0)"><g><g transform="translate(3.5,3.5)"><path fill-rule="evenodd" d="M-3.5 -3.5L-3.5 3.5L3.5 3.5L3.5 -3.5ZM-2.5 -2.5L-2.5 2.5L2.5 2.5L2.5 -2.5Z" fill="#000000"/><path fill-rule="evenodd" d="M-1.5 -1.5L-1.5 1.5L1.5 1.5L1.5 -1.5Z" fill="#000000"/></g></g><g><g transform="translate(25.5,3.5)"><g transform="rotate(90)"><path fill-rule="evenodd" d="M-3.5 -3.5L-3.5 3.5L3.5 3.5L3.5 -3.5ZM-2.5 -2.5L-2.5 2.5L2.5 2.5L2.5 -2.5Z" fill="#000000"/><path fill-rule="evenodd" d="M-1.5 -1.5L-1.5 1.5L1.5 1.5L1.5 -1.5Z" fill="#000000"/></g></g></g><g><g transform="translate(3.5,25.5)"><g transform="rotate(-90)"><path fill-rule="evenodd" d="M-3.5 -3.5L-3.5 3.5L3.5 3.5L3.5 -3.5ZM-2.5 -2.5L-2.5 2.5L2.5 2.5L2.5 -2.5Z" fill="#000000"/><path fill-rule="evenodd" d="M-1.5 -1.5L-1.5 1.5L1.5 1.5L1.5 -1.5Z" fill="#000000"/></g></g></g><path fill-rule="evenodd" d="M9 0L9 1L8 1L8 2L9 2L9 3L8 3L8 4L10 4L10 7L11 7L11 4L12 4L12 5L13 5L13 6L12 6L12 9L13 9L13 8L14 8L14 9L15 9L15 10L17 10L17 11L16 11L16 12L15 12L15 11L14 11L14 12L15 12L15 13L12 13L12 11L13 11L13 10L11 10L11 11L10 11L10 9L11 9L11 8L6 8L6 9L9 9L9 11L8 11L8 12L6 12L6 11L7 11L7 10L5 10L5 8L0 8L0 11L2 11L2 12L0 12L0 16L2 16L2 15L5 15L5 18L3 18L3 17L2 17L2 19L3 19L3 21L4 21L4 19L7 19L7 20L5 20L5 21L8 21L8 23L10 23L10 24L8 24L8 29L10 29L10 27L9 27L9 25L10 25L10 24L11 24L11 21L12 21L12 22L13 22L13 23L12 23L12 25L13 25L13 24L14 24L14 25L15 25L15 26L16 26L16 28L15 28L15 27L14 27L14 28L15 28L15 29L16 29L16 28L20 28L20 26L21 26L21 25L22 25L22 27L24 27L24 25L25 25L25 23L26 23L26 25L29 25L29 23L27 23L27 22L28 22L28 20L29 20L29 19L28 19L28 18L26 18L26 17L24 17L24 18L23 18L23 19L21 19L21 20L20 20L20 18L22 18L22 16L25 16L25 15L27 15L27 16L29 16L29 14L28 14L28 13L27 13L27 14L26 14L26 13L25 13L25 12L26 12L26 11L27 11L27 10L28 10L28 8L27 8L27 10L26 10L26 8L25 8L25 9L24 9L24 8L23 8L23 9L22 9L22 8L21 8L21 5L20 5L20 4L21 4L21 0L20 0L20 2L19 2L19 3L17 3L17 2L18 2L18 1L19 1L19 0L18 0L18 1L17 1L17 0L15 0L15 1L17 1L17 2L16 2L16 3L17 3L17 4L18 4L18 5L17 5L17 6L16 6L16 4L12 4L12 2L13 2L13 1L11 1L11 2L10 2L10 0ZM14 2L14 3L15 3L15 2ZM10 3L10 4L11 4L11 3ZM19 3L19 4L20 4L20 3ZM8 5L8 7L9 7L9 5ZM18 5L18 6L17 6L17 7L16 7L16 6L15 6L15 7L14 7L14 6L13 6L13 7L14 7L14 8L15 8L15 7L16 7L16 8L17 8L17 10L18 10L18 11L19 11L19 10L21 10L21 11L25 11L25 10L24 10L24 9L23 9L23 10L22 10L22 9L20 9L20 8L19 8L19 9L18 9L18 8L17 8L17 7L18 7L18 6L19 6L19 7L20 7L20 5ZM1 9L1 10L2 10L2 11L3 11L3 12L2 12L2 13L1 13L1 15L2 15L2 14L4 14L4 12L5 12L5 15L6 15L6 16L7 16L7 15L6 15L6 14L7 14L7 13L6 13L6 12L5 12L5 10L4 10L4 9ZM3 10L3 11L4 11L4 10ZM28 11L28 12L29 12L29 11ZM10 12L10 13L8 13L8 14L10 14L10 13L11 13L11 15L10 15L10 16L11 16L11 18L9 18L9 15L8 15L8 18L7 18L7 17L6 17L6 18L7 18L7 19L8 19L8 20L11 20L11 18L13 18L13 19L12 19L12 21L15 21L15 23L14 23L14 24L18 24L18 25L16 25L16 26L18 26L18 27L19 27L19 26L20 26L20 25L19 25L19 24L20 24L20 22L18 22L18 21L20 21L20 20L18 20L18 21L17 21L17 20L16 20L16 19L17 19L17 18L18 18L18 19L19 19L19 17L21 17L21 16L22 16L22 15L25 15L25 14L22 14L22 12L21 12L21 14L20 14L20 12L19 12L19 13L17 13L17 14L16 14L16 13L15 13L15 15L14 15L14 16L13 16L13 17L12 17L12 15L13 15L13 14L12 14L12 13L11 13L11 12ZM17 14L17 15L16 15L16 16L14 16L14 17L17 17L17 16L18 16L18 17L19 17L19 16L21 16L21 15L20 15L20 14L19 14L19 15L18 15L18 14ZM0 17L0 21L1 21L1 17ZM8 18L8 19L9 19L9 18ZM15 18L15 19L14 19L14 20L15 20L15 21L16 21L16 22L17 22L17 23L18 23L18 24L19 24L19 23L18 23L18 22L17 22L17 21L16 21L16 20L15 20L15 19L16 19L16 18ZM24 18L24 19L25 19L25 20L27 20L27 19L25 19L25 18ZM9 21L9 22L10 22L10 21ZM21 21L21 24L24 24L24 21ZM25 21L25 22L27 22L27 21ZM22 22L22 23L23 23L23 22ZM11 26L11 29L12 29L12 27L13 27L13 26ZM26 26L26 27L25 27L25 28L24 28L24 29L27 29L27 27L28 27L28 28L29 28L29 27L28 27L28 26ZM21 28L21 29L23 29L23 28Z" fill="#000000"/></g></g></svg>
