<svg width="241" height="244" viewBox="0 0 241 244" fill="none" xmlns="http://www.w3.org/2000/svg">
<path fill-rule="evenodd" clip-rule="evenodd" d="M33.451 0C15.0088 0 0 15.076 0 33.6008C0 52.2241 15.0088 67.3001 33.451 67.3001C51.9912 67.3001 67 52.2241 67 33.6008C67 15.076 51.9912 0 33.451 0ZM33.628 46.566C35.3628 46.566 37.0807 46.2235 38.6834 45.558C40.2862 44.8926 41.7425 43.9172 42.9692 42.6876C44.1206 41.5335 45.9873 41.5335 47.1386 42.6876C48.2899 43.8416 48.2899 45.7127 47.1386 46.8668C45.3644 48.6452 43.258 50.0559 40.9399 51.0184C38.6217 51.9809 36.1372 52.4763 33.628 52.4763C31.1189 52.4763 28.6343 51.9809 26.3161 51.0184C23.998 50.0559 21.8917 48.6452 20.1174 46.8668C18.9661 45.7127 18.9661 43.8416 20.1174 42.6876C21.2688 41.5335 23.1355 41.5335 24.2868 42.6876C25.5135 43.9172 26.9698 44.8925 28.5726 45.558C30.1754 46.2235 31.8932 46.566 33.628 46.566ZM24.0746 31.0261C26.3961 31.0261 28.2781 29.1397 28.2781 26.8127C28.2781 24.4857 26.3961 22.5993 24.0746 22.5993C21.7531 22.5993 19.8711 24.4857 19.8711 26.8127C19.8711 29.1397 21.7531 31.0261 24.0746 31.0261ZM47.3849 26.8127C47.3849 29.1397 45.503 31.0261 43.1814 31.0261C40.8599 31.0261 38.9779 29.1397 38.9779 26.8127C38.9779 24.4857 40.8599 22.5993 43.1814 22.5993C45.503 22.5993 47.3849 24.4857 47.3849 26.8127Z" fill="url(#paint0_linear_146_1697)"/>
<path fill-rule="evenodd" clip-rule="evenodd" d="M174 122.57C174 103.989 189.009 88.8667 207.451 88.8667C225.991 88.8667 241 103.989 241 122.57C241 141.25 225.991 156.373 207.451 156.373C189.009 156.373 174 141.25 174 122.57ZM217.181 119.988C219.503 119.988 221.385 118.096 221.385 115.761C221.385 113.427 219.503 111.535 217.181 111.535C214.86 111.535 212.978 113.427 212.978 115.761C212.978 118.096 214.86 119.988 217.181 119.988ZM207.628 136.344C209.363 136.344 211.081 136 212.683 135.332C214.286 134.665 215.743 133.687 216.969 132.453C218.121 131.296 219.987 131.296 221.139 132.453C222.29 133.611 222.29 135.488 221.139 136.645C219.364 138.429 217.258 139.844 214.94 140.81C212.622 141.775 210.137 142.272 207.628 142.272C205.119 142.272 202.634 141.775 200.316 140.81C197.998 139.844 195.892 138.429 194.117 136.645C192.966 135.488 192.966 133.611 194.117 132.453C195.269 131.296 197.135 131.296 198.287 132.453C199.514 133.687 200.97 134.665 202.573 135.332C204.175 136 205.893 136.344 207.628 136.344ZM194.635 113.456C193.369 113.456 192.343 114.488 192.343 115.761C192.343 117.035 193.369 118.067 194.635 118.067H201.514C202.78 118.067 203.807 117.035 203.807 115.761C203.807 114.488 202.78 113.456 201.514 113.456H194.635Z" fill="url(#paint1_linear_146_1697)"/>
<path fill-rule="evenodd" clip-rule="evenodd" d="M33.451 175.698C15.0088 175.698 0 190.82 0 209.402C0 228.082 15.0088 243.204 33.451 243.204C51.9912 243.204 67 228.082 67 209.402C67 190.82 51.9912 175.698 33.451 175.698ZM22.2894 188.761C22.9924 188.761 23.5614 189.353 23.5614 190.084V200.255C23.5614 200.804 23.9885 201.249 24.5153 201.249C25.0422 201.249 25.4693 200.804 25.4693 200.255V190.191C25.4693 190.063 25.4874 189.94 25.5212 189.823C25.6714 189.273 26.1465 188.873 26.7234 188.873H26.7401C27.04 188.873 27.3154 188.981 27.5325 189.162C27.8266 189.402 28.0131 189.776 28.0131 190.191V200.255C28.0131 200.804 28.4402 201.249 28.9671 201.249C29.4939 201.249 29.921 200.804 29.921 200.255V190.084C29.921 189.353 30.49 188.761 31.1929 188.761H31.2097C31.9126 188.761 32.4816 189.353 32.4816 190.084V204.126C32.4816 204.857 31.9126 205.432 31.2097 205.432H28.9865C28.4464 205.432 28.0086 205.888 28.0086 206.451V228.55C28.0086 229.28 27.4411 229.872 26.7401 229.872H26.7234C26.0225 229.872 25.4717 229.28 25.4717 228.55V206.451C25.4717 205.888 25.0339 205.432 24.4938 205.432H22.2727C21.5865 205.432 21.0175 204.857 21.0175 204.126V190.084C21.0175 189.353 21.5865 188.761 22.2727 188.761H22.2894ZM45.2775 209.654L42.4172 210.373V228.527C42.4172 229.27 41.8184 229.872 41.0797 229.872C40.341 229.872 39.7422 229.27 39.7422 228.527V189.704C39.7422 189.396 39.9911 189.145 40.298 189.145C43.3678 189.145 45.8564 191.647 45.8564 194.734V208.909C45.8564 209.261 45.6177 209.569 45.2775 209.654Z" fill="url(#paint2_linear_146_1697)"/>
<path fill-rule="evenodd" clip-rule="evenodd" d="M87 209.402C87 190.82 102.009 175.698 120.451 175.698C138.991 175.698 154 190.82 154 209.402C154 228.082 138.991 243.204 120.451 243.204C102.009 243.204 87 228.082 87 209.402ZM110.925 206.435C113.247 206.435 115.129 204.543 115.129 202.209C115.129 199.874 113.247 197.982 110.925 197.982C108.604 197.982 106.722 199.874 106.722 202.209C106.722 204.543 108.604 206.435 110.925 206.435ZM134.236 202.209C134.236 204.543 132.354 206.435 130.032 206.435C127.711 206.435 125.829 204.543 125.829 202.209C125.829 199.874 127.711 197.982 130.032 197.982C132.354 197.982 134.236 199.874 134.236 202.209ZM133.86 217.918C133.863 218.092 133.934 218.258 134.057 218.381C134.088 218.409 134.159 218.536 134.227 218.658C134.289 218.767 134.348 218.873 134.374 218.9C135.524 220.058 135.142 221.935 133.992 223.092C132.216 224.876 130.111 226.291 127.792 227.257C125.475 228.222 122.991 228.719 120.48 228.719C119.322 228.719 118.17 228.613 117.035 228.404C115.712 228.16 114.417 227.776 113.169 227.257C110.852 226.291 108.744 224.876 106.971 223.092C105.819 221.935 105.819 220.058 106.971 218.9C107.688 218.18 108.682 217.908 109.607 218.084C110.169 218.191 110.706 218.463 111.139 218.9C111.661 219.427 112.225 219.907 112.826 220.336C113.635 220.912 114.506 221.397 115.426 221.78C117.029 222.447 118.746 222.791 120.48 222.791C121.099 222.791 121.718 222.747 122.329 222.66C122.684 222.61 122.942 222.303 122.953 221.943L123.095 217.243C123.185 214.256 125.669 211.909 128.639 212.001C131.61 212.092 133.942 214.587 133.852 217.574L133.86 217.918Z" fill="url(#paint3_linear_146_1697)"/>
<path fill-rule="evenodd" clip-rule="evenodd" d="M174 209.402C174 190.82 189.009 175.698 207.451 175.698C225.991 175.698 241 190.82 241 209.402C241 228.082 225.991 243.204 207.451 243.204C189.009 243.204 174 228.082 174 209.402ZM198.075 206.435C200.396 206.435 202.278 204.543 202.278 202.209C202.278 199.874 200.396 197.982 198.075 197.982C195.753 197.982 193.871 199.874 193.871 202.209C193.871 204.543 195.753 206.435 198.075 206.435ZM221.385 202.209C221.385 204.543 219.503 206.435 217.181 206.435C214.86 206.435 212.978 204.543 212.978 202.209C212.978 199.874 214.86 197.982 217.181 197.982C219.503 197.982 221.385 199.874 221.385 202.209ZM202.573 221.058C204.175 220.391 205.893 220.047 207.628 220.047C209.363 220.047 211.081 220.391 212.683 221.058C214.286 221.726 215.743 222.704 216.969 223.938C218.121 225.095 219.987 225.095 221.139 223.938C222.29 222.78 222.29 220.903 221.139 219.746C219.364 217.962 217.258 216.547 214.94 215.581C212.622 214.616 210.137 214.119 207.628 214.119C205.119 214.119 202.634 214.616 200.316 215.581C197.998 216.547 195.892 217.962 194.117 219.746C192.966 220.903 192.966 222.78 194.117 223.938C195.269 225.095 197.135 225.095 198.287 223.938C199.514 222.704 200.97 221.726 202.573 221.058Z" fill="url(#paint4_linear_146_1697)"/>
<path d="M225.206 33.3243C225.206 43.267 217.165 51.3271 207.246 51.3271C197.327 51.3271 189.285 43.267 189.285 33.3243C189.285 23.3817 197.327 15.3215 207.246 15.3215C217.165 15.3215 225.206 23.3817 225.206 33.3243Z" fill="url(#paint5_linear_146_1697)"/>
<path fill-rule="evenodd" clip-rule="evenodd" d="M174 33.6008C174 15.076 189.009 1.52588e-05 207.451 1.52588e-05C225.991 1.52588e-05 241 15.076 241 33.6008C241 52.2241 225.991 67.3001 207.451 67.3001C189.009 67.3001 174 52.2241 174 33.6008ZM226.735 33.3243C226.735 44.1132 218.009 52.8593 207.246 52.8593C196.482 52.8593 187.757 44.1132 187.757 33.3243C187.757 22.5355 196.482 13.7894 207.246 13.7894C218.009 13.7894 226.735 22.5355 226.735 33.3243Z" fill="url(#paint6_linear_146_1697)"/>
<path fill-rule="evenodd" clip-rule="evenodd" d="M120.451 0C102.009 0 87 15.076 87 33.6008C87 52.2241 102.009 67.3001 120.451 67.3001C138.991 67.3001 154 52.2241 154 33.6008C154 15.076 138.991 0 120.451 0ZM115.457 26.4296C115.457 28.7567 113.575 30.6431 111.254 30.6431C108.932 30.6431 107.05 28.7567 107.05 26.4296C107.05 24.1026 108.932 22.2162 111.254 22.2162C113.575 22.2162 115.457 24.1026 115.457 26.4296ZM130.361 30.6431C132.682 30.6431 134.564 28.7567 134.564 26.4296C134.564 24.1026 132.682 22.2162 130.361 22.2162C128.039 22.2162 126.157 24.1026 126.157 26.4296C126.157 28.7567 128.039 30.6431 130.361 30.6431ZM106.107 44.6599C106.107 43.0733 107.39 41.7871 108.973 41.7871H132.283C133.866 41.7871 135.149 43.0733 135.149 44.6599C135.149 46.2465 133.866 47.5327 132.283 47.5327H108.973C107.39 47.5327 106.107 46.2465 106.107 44.6599Z" fill="url(#paint7_linear_146_1697)"/>
<path fill-rule="evenodd" clip-rule="evenodd" d="M86 122.817C86 104.1 101.233 88.8667 119.95 88.8667C138.767 88.8667 154 104.1 154 122.817C154 141.634 138.767 156.867 119.95 156.867C101.233 156.867 86 141.634 86 122.817ZM125.261 135.286C123.634 135.958 121.891 136.304 120.13 136.304C118.369 136.304 116.626 135.958 114.999 135.286C113.372 134.613 111.894 133.628 110.649 132.385C109.481 131.219 107.586 131.219 106.418 132.385C105.249 133.551 105.249 135.442 106.418 136.608C108.218 138.405 110.356 139.83 112.709 140.803C115.062 141.775 117.583 142.276 120.13 142.276C122.677 142.276 125.198 141.775 127.551 140.803C129.904 139.83 132.041 138.405 133.842 136.608C135.011 135.442 135.011 133.551 133.842 132.385C132.674 131.219 130.779 131.219 129.611 132.385C128.366 133.628 126.887 134.613 125.261 135.286Z" fill="url(#paint8_linear_146_1697)"/>
<path fill-rule="evenodd" clip-rule="evenodd" d="M33.451 86.5667C15.0088 86.5667 0 101.643 0 120.167C0 138.791 15.0088 153.867 33.451 153.867C51.9912 153.867 67 138.791 67 120.167C67 101.643 51.9912 86.5667 33.451 86.5667ZM28.2781 112.996C28.2781 115.323 26.3961 117.21 24.0746 117.21C21.7531 117.21 19.8711 115.323 19.8711 112.996C19.8711 110.669 21.7531 108.783 24.0746 108.783C26.3961 108.783 28.2781 110.669 28.2781 112.996ZM43.1814 117.21C45.503 117.21 47.3849 115.323 47.3849 112.996C47.3849 110.669 45.503 108.783 43.1814 108.783C40.8599 108.783 38.9779 110.669 38.9779 112.996C38.9779 115.323 40.8599 117.21 43.1814 117.21ZM41.2708 132.148C41.2708 136.379 37.849 139.809 33.628 139.809C29.4071 139.809 25.9853 136.379 25.9853 132.148C25.9853 127.917 29.4071 124.487 33.628 124.487C37.849 124.487 41.2708 127.917 41.2708 132.148Z" fill="url(#paint9_linear_146_1697)"/>
<defs>
<linearGradient id="paint0_linear_146_1697" x1="130.762" y1="-31.0767" x2="3.33025" y2="104.57" gradientUnits="userSpaceOnUse">
<stop stop-color="#FF9F0A"/>
<stop offset="1" stop-color="#F03860"/>
</linearGradient>
<linearGradient id="paint1_linear_146_1697" x1="130.762" y1="-31.0767" x2="3.33025" y2="104.57" gradientUnits="userSpaceOnUse">
<stop stop-color="#FF9F0A"/>
<stop offset="1" stop-color="#F03860"/>
</linearGradient>
<linearGradient id="paint2_linear_146_1697" x1="130.762" y1="-31.0767" x2="3.33025" y2="104.57" gradientUnits="userSpaceOnUse">
<stop stop-color="#FF9F0A"/>
<stop offset="1" stop-color="#F03860"/>
</linearGradient>
<linearGradient id="paint3_linear_146_1697" x1="130.762" y1="-31.0767" x2="3.33025" y2="104.57" gradientUnits="userSpaceOnUse">
<stop stop-color="#FF9F0A"/>
<stop offset="1" stop-color="#F03860"/>
</linearGradient>
<linearGradient id="paint4_linear_146_1697" x1="130.762" y1="-31.0767" x2="3.33025" y2="104.57" gradientUnits="userSpaceOnUse">
<stop stop-color="#FF9F0A"/>
<stop offset="1" stop-color="#F03860"/>
</linearGradient>
<linearGradient id="paint5_linear_146_1697" x1="130.762" y1="-31.0767" x2="3.33025" y2="104.57" gradientUnits="userSpaceOnUse">
<stop stop-color="#FF9F0A"/>
<stop offset="1" stop-color="#F03860"/>
</linearGradient>
<linearGradient id="paint6_linear_146_1697" x1="130.762" y1="-31.0767" x2="3.33025" y2="104.57" gradientUnits="userSpaceOnUse">
<stop stop-color="#FF9F0A"/>
<stop offset="1" stop-color="#F03860"/>
</linearGradient>
<linearGradient id="paint7_linear_146_1697" x1="130.762" y1="-31.0767" x2="3.33025" y2="104.57" gradientUnits="userSpaceOnUse">
<stop stop-color="#FF9F0A"/>
<stop offset="1" stop-color="#F03860"/>
</linearGradient>
<linearGradient id="paint8_linear_146_1697" x1="130.762" y1="-31.0767" x2="3.33025" y2="104.57" gradientUnits="userSpaceOnUse">
<stop stop-color="#FF9F0A"/>
<stop offset="1" stop-color="#F03860"/>
</linearGradient>
<linearGradient id="paint9_linear_146_1697" x1="130.762" y1="-31.0767" x2="3.33025" y2="104.57" gradientUnits="userSpaceOnUse">
<stop stop-color="#FF9F0A"/>
<stop offset="1" stop-color="#F03860"/>
</linearGradient>
</defs>
</svg>
