<svg width="160" height="160" viewBox="0 0 160 160" fill="none" xmlns="http://www.w3.org/2000/svg">
<path fill-rule="evenodd" clip-rule="evenodd" d="M45.0248 22.5124C45.0248 34.9457 34.9457 45.0248 22.5124 45.0248C10.0791 45.0248 0 34.9457 0 22.5124C0 10.0791 10.0791 0 22.5124 0C34.9457 0 45.0248 10.0791 45.0248 22.5124ZM22.5311 31.3076C23.7279 31.3077 24.9122 31.0647 26.0122 30.5934C27.1122 30.122 28.105 29.432 28.9304 28.5654C29.6372 27.8232 30.812 27.7945 31.5542 28.5014C32.2964 29.2082 32.3251 30.383 31.6182 31.1252C30.4462 32.3559 29.0363 33.3356 27.4742 34.005C25.912 34.6744 24.2302 35.0195 22.5307 35.0193C20.8312 35.0191 19.1494 34.6736 17.5874 34.0039C16.0255 33.3341 14.6158 32.354 13.4441 31.1231C12.7374 30.3807 12.7663 29.206 13.5087 28.4993C14.2511 27.7926 15.4258 27.8215 16.1325 28.5639C16.9576 29.4308 17.9503 30.1209 19.0502 30.5925C20.1501 31.0642 21.3344 31.3074 22.5311 31.3076ZM18.9385 17.8847C18.9385 19.4452 17.6735 20.7102 16.113 20.7102C14.5525 20.7102 13.2875 19.4452 13.2875 17.8847C13.2875 16.3242 14.5525 15.0592 16.113 15.0592C17.6735 15.0592 18.9385 16.3242 18.9385 17.8847ZM28.9409 20.7102C30.5014 20.7102 31.7664 19.4452 31.7664 17.8847C31.7664 16.3242 30.5014 15.0592 28.9409 15.0592C27.3804 15.0592 26.1154 16.3242 26.1154 17.8847C26.1154 19.4452 27.3804 20.7102 28.9409 20.7102Z" fill="white"/>
<path fill-rule="evenodd" clip-rule="evenodd" d="M102.512 22.5124C102.512 34.9457 92.4333 45.0248 80 45.0248C67.5668 45.0248 57.4876 34.9457 57.4876 22.5124C57.4876 10.0791 67.5668 0 80 0C92.4333 0 102.512 10.0791 102.512 22.5124ZM72.0886 28.194C71.0595 28.194 70.2253 29.0282 70.2253 30.0573C70.2253 31.0863 71.0595 31.9206 72.0886 31.9206H87.9725C89.0016 31.9206 89.8358 31.0863 89.8358 30.0573C89.8358 29.0282 89.0016 28.194 87.9725 28.194H72.0886ZM76.4261 17.8847C76.4261 19.4452 75.1611 20.7102 73.6006 20.7102C72.0401 20.7102 70.7751 19.4452 70.7751 17.8847C70.7751 16.3242 72.0401 15.0592 73.6006 15.0592C75.1611 15.0592 76.4261 16.3242 76.4261 17.8847ZM86.4285 20.7102C87.989 20.7102 89.254 19.4452 89.254 17.8847C89.254 16.3242 87.989 15.0592 86.4285 15.0592C84.868 15.0592 83.603 16.3242 83.603 17.8847C83.603 19.4452 84.868 20.7102 86.4285 20.7102Z" fill="white"/>
<path d="M148.98 22.5277C148.98 28.8786 143.831 34.0271 137.48 34.0271C131.129 34.0271 125.981 28.8786 125.981 22.5277C125.981 16.1768 131.129 11.0283 137.48 11.0283C143.831 11.0283 148.98 16.1768 148.98 22.5277Z" fill="white"/>
<path fill-rule="evenodd" clip-rule="evenodd" d="M137.488 45.0248C149.921 45.0248 160 34.9457 160 22.5124C160 10.0791 149.921 0 137.488 0C125.054 0 114.975 10.0791 114.975 22.5124C114.975 34.9457 125.054 45.0248 137.488 45.0248ZM149.958 22.5277C149.958 29.4191 144.372 35.0057 137.48 35.0057C130.589 35.0057 125.002 29.4191 125.002 22.5277C125.002 15.6362 130.589 10.0496 137.48 10.0496C144.372 10.0496 149.958 15.6362 149.958 22.5277Z" fill="white"/>
<path fill-rule="evenodd" clip-rule="evenodd" d="M45.0248 80C45.0248 92.4332 34.9457 102.512 22.5124 102.512C10.0791 102.512 0 92.4332 0 80C0 67.5667 10.0791 57.4875 22.5124 57.4875C34.9457 57.4875 45.0248 67.5667 45.0248 80ZM16.113 78.1977C17.6735 78.1977 18.9385 76.9327 18.9385 75.3722C18.9385 73.8118 17.6735 72.5467 16.113 72.5467C14.5525 72.5467 13.2875 73.8118 13.2875 75.3722C13.2875 76.9327 14.5525 78.1977 16.113 78.1977ZM31.7664 75.3722C31.7664 76.9327 30.5014 78.1977 28.9409 78.1977C27.3804 78.1977 26.1154 76.9327 26.1154 75.3722C26.1154 73.8118 27.3804 72.5467 28.9409 72.5467C30.5014 72.5467 31.7664 73.8118 31.7664 75.3722ZM22.5124 92.4933C25.3466 92.4933 27.6441 90.1957 27.6441 87.3615C27.6441 84.5274 25.3466 82.2298 22.5124 82.2298C19.6782 82.2298 17.3807 84.5274 17.3807 87.3615C17.3807 90.1957 19.6782 92.4933 22.5124 92.4933Z" fill="white"/>
<path fill-rule="evenodd" clip-rule="evenodd" d="M102.512 80C102.512 92.4332 92.4333 102.512 80 102.512C67.5668 102.512 57.4876 92.4332 57.4876 80C57.4876 67.5667 67.5668 57.4875 80 57.4875C92.4333 57.4875 102.512 67.5667 102.512 80ZM80.0187 88.7951C81.2155 88.7953 82.3998 88.5523 83.4998 88.0809C84.5999 87.6095 85.5926 86.9196 86.418 86.053C87.1248 85.3107 88.2996 85.2821 89.0418 85.9889C89.784 86.6958 89.8127 87.8705 89.1058 88.6127C87.9338 89.8434 86.5239 90.8232 84.9618 91.4926C83.3996 92.162 81.7178 92.5071 80.0183 92.5069C78.3188 92.5067 76.637 92.1612 75.0751 91.4914C73.5131 90.8217 72.1034 89.8416 70.9317 88.6106C70.225 87.8682 70.2539 86.6935 70.9963 85.9868C71.7387 85.2801 72.9134 85.3091 73.6201 86.0515C74.4452 86.9183 75.4379 87.6085 76.5378 88.0801C77.6377 88.5517 78.822 88.795 80.0187 88.7951Z" fill="white"/>
<path fill-rule="evenodd" clip-rule="evenodd" d="M160 80C160 92.4332 149.921 102.512 137.488 102.512C125.054 102.512 114.975 92.4332 114.975 80C114.975 67.5667 125.054 57.4875 137.488 57.4875C149.921 57.4875 160 67.5667 160 80ZM137.506 88.7951C138.703 88.7953 139.887 88.5523 140.987 88.0809C142.087 87.6095 143.08 86.9196 143.906 86.053C144.612 85.3107 145.787 85.2821 146.529 85.9889C147.272 86.6958 147.3 87.8705 146.593 88.6127C145.421 89.8434 144.011 90.8232 142.449 91.4926C140.887 92.162 139.205 92.507 137.506 92.5068C135.806 92.5066 134.125 92.1612 132.563 91.4914C131.001 90.8217 129.591 89.8416 128.419 88.6106C127.713 87.8682 127.741 86.6935 128.484 85.9868C129.226 85.2801 130.401 85.3091 131.108 86.0515C131.933 86.9183 132.925 87.6085 134.025 88.0801C135.125 88.5517 136.31 88.795 137.506 88.7951ZM127.255 75.3875C127.255 74.5271 127.952 73.8297 128.813 73.8297H133.394C134.255 73.8297 134.952 74.5271 134.952 75.3875C134.952 76.2479 134.255 76.9454 133.394 76.9454H128.813C127.952 76.9454 127.255 76.2479 127.255 75.3875ZM143.916 78.1977C145.477 78.1977 146.742 76.9327 146.742 75.3722C146.742 73.8118 145.477 72.5467 143.916 72.5467C142.356 72.5467 141.091 73.8118 141.091 75.3722C141.091 76.9327 142.356 78.1977 143.916 78.1977Z" fill="white"/>
<path fill-rule="evenodd" clip-rule="evenodd" d="M160 137.488C160 149.921 149.921 160 137.488 160C125.054 160 114.975 149.921 114.975 137.488C114.975 125.054 125.054 114.975 137.488 114.975C149.921 114.975 160 125.054 160 137.488ZM137.506 144.17C138.703 144.17 139.887 144.413 140.987 144.884C142.087 145.355 143.08 146.045 143.906 146.912C144.612 147.654 145.787 147.683 146.529 146.976C147.272 146.269 147.3 145.094 146.593 144.352C145.421 143.121 144.011 142.142 142.449 141.472C140.887 140.803 139.205 140.458 137.506 140.458C135.806 140.458 134.125 140.804 132.563 141.473C131.001 142.143 129.591 143.123 128.419 144.354C127.713 145.097 127.741 146.271 128.484 146.978C129.226 147.685 130.401 147.656 131.108 146.913C131.933 146.047 132.925 145.356 134.025 144.885C135.125 144.413 136.31 144.17 137.506 144.17ZM133.914 132.86C133.914 134.42 132.649 135.685 131.088 135.685C129.528 135.685 128.263 134.42 128.263 132.86C128.263 131.299 129.528 130.034 131.088 130.034C132.649 130.034 133.914 131.299 133.914 132.86ZM143.916 135.685C145.477 135.685 146.742 134.42 146.742 132.86C146.742 131.299 145.477 130.034 143.916 130.034C142.356 130.034 141.091 131.299 141.091 132.86C141.091 134.42 142.356 135.685 143.916 135.685Z" fill="white"/>
<path fill-rule="evenodd" clip-rule="evenodd" d="M102.512 137.488C102.512 149.921 92.4333 160 80 160C67.5668 160 57.4876 149.921 57.4876 137.488C57.4876 125.054 67.5668 114.975 80 114.975C92.4333 114.975 102.512 125.054 102.512 137.488ZM73.6006 135.685C75.1611 135.685 76.4261 134.42 76.4261 132.86C76.4261 131.299 75.1611 130.034 73.6006 130.034C72.0401 130.034 70.7751 131.299 70.7751 132.86C70.7751 134.42 72.0401 135.685 73.6006 135.685ZM89.254 132.86C89.254 134.42 87.989 135.685 86.4285 135.685C84.868 135.685 83.603 134.42 83.603 132.86C83.603 131.299 84.868 130.034 86.4285 130.034C87.989 130.034 89.254 131.299 89.254 132.86ZM88.8197 142.869C88.8223 142.984 88.8691 143.094 88.9504 143.175C88.9713 143.193 89.0184 143.277 89.0638 143.358C89.1044 143.43 89.1436 143.5 89.1614 143.518C89.9239 144.284 89.6704 145.525 88.9079 146.291C87.7294 147.47 86.3331 148.406 84.7943 149.044C83.2574 149.683 81.6095 150.011 79.9439 150.011C79.1755 150.011 78.411 149.941 77.6584 149.803C76.781 149.642 75.9214 149.388 75.0936 149.044C73.5566 148.406 72.1584 147.47 70.9819 146.291C70.2174 145.525 70.2174 144.284 70.9819 143.518C71.4573 143.042 72.1168 142.862 72.7308 142.979C73.1031 143.049 73.4596 143.229 73.7468 143.518C74.0934 143.866 74.4677 144.184 74.8658 144.468C75.4025 144.849 75.9808 145.169 76.5908 145.422C77.6544 145.864 78.7932 146.091 79.9439 146.091C80.3526 146.091 80.7614 146.062 81.1652 146.005C81.4037 145.972 81.5771 145.767 81.5844 145.526L81.6789 142.422C81.7383 140.447 83.3861 138.895 85.3567 138.955C87.3274 139.016 88.8742 140.666 88.8148 142.641L88.8197 142.869Z" fill="white"/>
<path fill-rule="evenodd" clip-rule="evenodd" d="M45.0248 137.488C45.0248 149.921 34.9457 160 22.5124 160C10.0791 160 0 149.921 0 137.488C0 125.054 10.0791 114.975 22.5124 114.975C34.9457 114.975 45.0248 125.054 45.0248 137.488ZM15.8829 125.481C15.8829 124.993 15.5005 124.597 15.0281 124.597H15.0169C14.5557 124.597 14.1733 124.993 14.1733 125.481V134.867C14.1733 135.356 14.5557 135.739 15.0169 135.739H16.5094C16.8724 135.739 17.1666 136.044 17.1666 136.421V151.191C17.1666 151.68 17.5367 152.075 18.0078 152.075H18.019C18.4901 152.075 18.8714 151.68 18.8714 151.191V136.421C18.8714 136.044 19.1656 135.739 19.5286 135.739H21.0226C21.495 135.739 21.8774 135.356 21.8774 134.867V125.481C21.8774 124.993 21.495 124.597 21.0226 124.597H21.0114C20.539 124.597 20.1566 124.993 20.1566 125.481V132.279C20.1566 132.646 19.8696 132.944 19.5155 132.944C19.1615 132.944 18.8745 132.646 18.8745 132.279V125.552C18.8745 125.275 18.7492 125.026 18.5515 124.865C18.4056 124.744 18.2205 124.672 18.019 124.672H18.0078C17.6201 124.672 17.3008 124.94 17.1999 125.307C17.1772 125.385 17.165 125.467 17.165 125.552V132.279C17.165 132.646 16.878 132.944 16.5239 132.944C16.1699 132.944 15.8829 132.646 15.8829 132.279V125.481ZM28.5542 139.042L30.4764 138.562C30.705 138.504 30.8654 138.299 30.8654 138.063V128.589C30.8654 126.526 29.1931 124.854 27.1302 124.854C26.9239 124.854 26.7566 125.021 26.7566 125.227V151.176C26.7566 151.672 27.159 152.075 27.6554 152.075C28.1518 152.075 28.5542 151.672 28.5542 151.176V139.042Z" fill="white"/>
</svg>
