<svg width="144" height="144" viewBox="0 0 144 144" fill="none" xmlns="http://www.w3.org/2000/svg">
<path fill-rule="evenodd" clip-rule="evenodd" d="M4 71.9004C4 34.4656 34.4656 4 71.9005 4C109.534 4 140 34.4656 140 71.9004C140 109.534 109.534 140 71.9005 140C34.4656 140 4 109.534 4 71.9004ZM81.7459 97.0338C78.4926 98.3814 75.0056 99.075 71.4842 99.075C67.9627 99.075 64.4758 98.3814 61.2224 97.0338C57.969 95.6862 55.0129 93.711 52.5229 91.2209C50.1859 88.8839 46.3968 88.8839 44.0597 91.2209C41.7227 93.558 41.7227 97.3471 44.0597 99.6841C47.6612 103.286 51.9367 106.142 56.6422 108.091C61.3477 110.04 66.391 111.044 71.4842 111.044C76.5774 111.044 81.6207 110.04 86.3262 108.091C91.0317 106.142 95.3072 103.286 98.9086 99.6841C101.246 97.3471 101.246 93.558 98.9086 91.221C96.5716 88.8839 92.7825 88.8839 90.4455 91.221C87.9554 93.711 84.9993 95.6862 81.7459 97.0338Z" fill="#F96D29"/>
</svg>
