<svg width="144" height="144" viewBox="0 0 144 144" fill="none" xmlns="http://www.w3.org/2000/svg">
<path fill-rule="evenodd" clip-rule="evenodd" d="M72.2646 140C109.82 140 140.265 109.555 140.265 72C140.265 34.4446 109.82 4 72.2646 4C34.7093 4 4.26465 34.4446 4.26465 72C4.26465 109.555 34.7093 140 72.2646 140ZM82.8359 96.409C79.5132 97.8328 75.9359 98.5667 72.321 98.5663C68.7062 98.5659 65.129 97.8311 61.8067 96.4065C58.4843 94.9819 55.486 92.8973 52.9936 90.279C50.8591 88.0365 47.3108 87.9491 45.0684 90.0837C42.8259 92.2183 42.7385 95.7666 44.8731 98.009C48.4125 101.727 52.6704 104.688 57.3884 106.711C62.1064 108.734 67.1863 109.777 72.3197 109.778C77.4532 109.778 82.5333 108.736 87.2518 106.714C91.9703 104.692 96.2289 101.733 99.7691 98.0154C101.904 95.7734 101.818 92.2251 99.5757 90.09C97.3338 87.9549 93.7855 88.0415 91.6504 90.2835C89.1574 92.9012 86.1586 94.9852 82.8359 96.409Z" fill="#F96D29"/>
</svg>
