<svg width="652" height="144" viewBox="0 0 652 144" fill="none" xmlns="http://www.w3.org/2000/svg">
<path fill-rule="evenodd" clip-rule="evenodd" d="M4 71.9004C4 34.4656 34.4656 4 71.9005 4C109.534 4 140 34.4656 140 71.9004C140 109.534 109.534 140 71.9005 140C34.4656 140 4 109.534 4 71.9004ZM81.7459 97.0338C78.4926 98.3814 75.0056 99.075 71.4842 99.075C67.9627 99.075 64.4758 98.3814 61.2224 97.0338C57.969 95.6862 55.0129 93.711 52.5229 91.2209C50.1859 88.8839 46.3968 88.8839 44.0597 91.2209C41.7227 93.558 41.7227 97.3471 44.0597 99.6841C47.6612 103.286 51.9367 106.142 56.6422 108.091C61.3477 110.04 66.391 111.044 71.4842 111.044C76.5774 111.044 81.6207 110.04 86.3262 108.091C91.0317 106.142 95.3072 103.286 98.9086 99.6841C101.246 97.3471 101.246 93.558 98.9086 91.221C96.5716 88.8839 92.7825 88.8839 90.4455 91.221C87.9554 93.711 84.9993 95.6862 81.7459 97.0338Z" fill="#F96D29"/>
<path d="M225.657 87.7105C235.698 83.0108 242.058 72.8281 241.835 61.7503C241.5 46.3084 228.558 34.1116 213.162 34.1116H194.419C189.733 34.1116 186.051 37.9161 186.051 42.5039V102.257C186.051 106.957 189.733 110.761 194.419 110.761H194.53C199.216 110.761 203.009 106.957 203.009 102.257V90.3961H206.356L226.438 117.028C228 119.154 230.455 120.385 233.132 120.385H233.356C236.479 120.385 239.38 118.482 240.831 115.685C242.281 112.776 241.946 109.419 240.05 106.845L225.657 87.7105ZM213.831 73.2757H203.009V51.12H213.831C219.856 51.12 224.876 56.0435 224.876 62.1979C224.876 68.3522 219.856 73.2757 213.831 73.2757Z" fill="#190802"/>
<path d="M303.537 51.12C308.223 51.12 312.016 47.3155 312.016 42.6158V42.5039C312.016 37.9161 308.223 34.1116 303.537 34.1116H272.633C267.947 34.1116 264.266 37.9161 264.266 42.5039V102.257C264.266 106.957 267.947 110.761 272.633 110.761H303.537C308.223 110.761 312.016 106.957 312.016 102.257V102.145C312.016 97.4456 308.223 93.6411 303.537 93.6411H287.597C284.077 93.6411 281.224 90.7855 281.224 87.2629C281.224 83.7404 284.077 80.8848 287.597 80.8848H294.054C298.628 80.8848 302.422 77.1921 302.422 72.4924V72.3806C302.422 67.6809 298.628 63.8763 294.054 63.8763H287.597C284.077 63.8763 281.224 61.0207 281.224 57.4982C281.224 53.9756 284.077 51.12 287.597 51.12H303.537Z" fill="#190802"/>
<path d="M387.055 91.4031L386.943 91.2913C384.266 88.8295 380.138 88.3819 377.014 90.3961C368.2 95.7671 356.709 93.9768 350.015 86.144C343.209 78.1992 343.098 66.6738 349.792 58.7291C356.374 50.7843 367.865 48.7702 376.679 54.0294C379.915 56.0435 384.043 55.7078 386.832 53.1342L386.943 53.0223C388.952 51.2319 389.956 48.6583 389.733 46.0846C389.509 43.3991 388.059 41.0492 385.828 39.7065C369.762 29.8595 349.011 33.2164 336.961 47.5393C324.8 61.8622 324.801 82.8989 337.073 97.2218C349.234 111.433 369.985 114.678 385.939 104.831C388.171 103.376 389.621 101.026 389.844 98.3408C390.067 95.7671 389.063 93.1935 387.055 91.4031Z" fill="#190802"/>
<path d="M442.573 34.1116C421.598 34.1116 404.529 51.2319 404.529 72.2687C404.529 93.4173 421.598 110.538 442.573 110.538C463.659 110.538 480.729 93.4173 480.729 72.2687C480.729 51.2319 463.659 34.1116 442.573 34.1116ZM442.573 93.5292C430.97 93.5292 421.487 84.0179 421.487 72.2687C421.487 60.6313 430.97 51.12 442.573 51.12C454.288 51.12 463.771 60.6313 463.771 72.2687C463.771 84.0179 454.288 93.5292 442.573 93.5292Z" fill="#190802"/>
<path d="M555.419 61.3027C554.973 46.0846 542.031 34.1116 526.746 34.1116H508.003C503.317 34.1116 499.635 37.9161 499.635 42.5039V111.88C499.635 116.58 503.317 120.273 508.003 120.273H508.114C512.8 120.273 516.594 116.58 516.594 111.88V90.3961H527.416C534.891 90.2842 542.254 87.2629 547.498 81.78C552.741 76.297 555.642 68.9117 555.419 61.3027ZM527.304 73.2757H516.594V51.12H527.304C533.44 51.12 538.461 56.0435 538.461 62.1979C538.461 68.3522 533.44 73.2757 527.304 73.2757Z" fill="#190802"/>
<path d="M608.844 34.1116C587.869 34.1116 570.8 51.2319 570.8 72.2687C570.8 93.4173 587.869 110.538 608.844 110.538C629.93 110.538 647 93.4173 647 72.2687C647 51.2319 629.93 34.1116 608.844 34.1116ZM608.844 93.5292C597.241 93.5292 587.758 84.0179 587.758 72.2687C587.758 60.6313 597.241 51.12 608.844 51.12C620.559 51.12 630.042 60.6313 630.042 72.2687C630.042 84.0179 620.559 93.5292 608.844 93.5292Z" fill="#190802"/>
<path fill-rule="evenodd" clip-rule="evenodd" d="M4 71.9004C4 34.4656 34.4399 4 71.8431 4C109.445 4 139.885 34.4656 139.885 71.9004C139.885 109.534 109.445 140 71.8431 140C34.4399 140 4 109.534 4 71.9004ZM81.6802 97.0338C78.4296 98.3814 74.9456 99.075 71.4271 99.075C67.9087 99.075 64.4247 98.3814 61.174 97.0338C57.9234 95.6862 54.9698 93.711 52.4819 91.2209C50.1468 88.8839 46.3609 88.8839 44.0259 91.2209C41.6908 93.558 41.6908 97.347 44.0259 99.6841C47.6242 103.286 51.8962 106.142 56.5977 108.091C61.2992 110.04 66.3382 111.044 71.4271 111.044C76.516 111.044 81.5551 110.04 86.2566 108.091C90.9581 106.142 95.23 103.286 98.8284 99.6841C101.163 97.3471 101.163 93.558 98.8284 91.221C96.4933 88.8839 92.7074 88.8839 90.3724 91.221C87.8845 93.711 84.9309 95.6862 81.6802 97.0338Z" fill="#F96D29"/>
</svg>
