<svg width="512" height="512" viewBox="0 0 512 512" fill="none" xmlns="http://www.w3.org/2000/svg">
<path fill-rule="evenodd" clip-rule="evenodd" d="M0 255.625C0 114.694 114.694 0 255.625 0C397.306 0 512 114.694 512 255.625C512 397.306 397.306 512 255.625 512C114.694 512 0 397.306 0 255.625ZM292.691 350.245C280.443 355.318 267.315 357.929 254.058 357.929C240.801 357.929 227.674 355.318 215.426 350.245C203.177 345.171 192.049 337.735 182.674 328.361C173.876 319.563 159.611 319.563 150.813 328.361C142.015 337.159 142.015 351.424 150.813 360.222C164.371 373.781 180.467 384.536 198.182 391.873C215.897 399.211 234.884 402.988 254.058 402.988C273.232 402.988 292.219 399.211 309.934 391.874C327.649 384.536 343.745 373.781 357.303 360.223C366.101 351.424 366.101 337.159 357.303 328.361C348.505 319.563 334.24 319.563 325.442 328.361C316.067 337.735 304.939 345.171 292.691 350.245Z" fill="#F96D29"/>
</svg>
