<svg width="934" height="934" viewBox="0 0 934 934" fill="none" xmlns="http://www.w3.org/2000/svg">
<path d="M447.6 26.1334C447.467 26.2667 442 26.8 435.333 27.2C418.4 28.5334 403.333 30.4 392 32.6667C390.133 33.0667 385.333 34 381.333 34.8C377.333 35.4667 372.533 36.4 370.667 36.8C352.8 40.4 318 51.6 296.133 60.9334C197.333 103.2 116.4 180.8 70.2665 277.333C56.1332 307.067 39.8665 355.6 36.6665 378C36.1332 380.933 35.5999 384.4 35.1999 385.6C34.2665 388.933 33.5999 392.133 32.6665 400C32.1332 403.867 31.5999 408.133 31.3332 409.467C31.0665 410.8 30.3999 416.533 29.9999 422.267C29.4665 428 28.7999 434.8 28.5332 437.333C27.8665 443.867 27.8665 490.267 28.5332 496C28.9332 498.533 29.5999 505.467 29.9999 511.333C32.6665 544.267 44.2665 592.667 57.5999 626.667C84.6665 695.333 129.6 758 184 803.2C190.933 808.933 198.133 814.8 200 816.4C212.933 827.2 249.2 849.733 272.667 861.6C305.467 878 356 895.067 384.267 899.2C387.067 899.6 392 900.533 395.2 901.333C398.533 902 405.333 903.067 410.267 903.467C415.2 903.867 419.733 904.533 420.133 904.8C421.733 905.733 452 907.2 469.333 907.067C485.467 907.067 508.133 906 517.333 904.8C519.2 904.533 523.733 903.867 527.333 903.467C595.733 894.533 663.067 868.267 721.333 827.6C789.467 779.867 845.867 709.333 876.4 633.333C890.4 598.267 901.6 557.067 904.8 527.733C905.2 523.867 905.733 519.867 906 519.067C908.4 511.867 909.467 452.933 907.733 430.533C900.8 342.4 865.6 255.733 808.267 186.133C797.2 172.533 764.933 140.133 752.667 129.867C748.267 126.267 744.4 123.067 744 122.667C741.733 120.4 720.133 104.8 710.667 98.4C656.667 62.8 588.533 37.3334 528.4 30C525.2 29.6 520.4 29.0667 517.733 28.8C503.733 27.0667 489.333 26.2667 469.6 26.1334C457.6 26 447.733 26 447.6 26.1334ZM332.267 577.333C335.467 578.8 342 583.867 346.8 588.4C359.867 600.667 362.4 602.8 372.667 609.467C391.2 621.733 410.133 629.733 432.533 634.933C451.067 639.2 482.533 639.467 502 635.467C535.733 628.4 563.733 613.867 589.2 589.867C602 577.867 609.467 574.267 620.933 574.267C647.467 574.533 664.267 602.133 652.667 626C647.6 636.4 626.8 655.6 604.533 670.4C558 701.333 503.2 715.2 446 710.267C435.333 709.333 433.6 709.2 420 706.533C375.733 698 330 673.733 297.2 641.333C285.733 630 281.2 621.733 281.067 611.333C280.533 584.4 308.4 565.867 332.267 577.333Z" fill="#F96D29"/>
</svg>
